<?xml version="1.0" encoding="UTF-8" standalone="no"?>
<!-- Created with Inkscape (http://www.inkscape.org/) -->

<svg
   width="2048"
   height="1024"
   viewBox="0 0 541.86664 270.93334"
   version="1.1"
   id="svg1"
   inkscape:version="1.3 (0e150ed6c4, 2023-07-21)"
   sodipodi:docname="collective.svg"
   xmlns:inkscape="http://www.inkscape.org/namespaces/inkscape"
   xmlns:sodipodi="http://sodipodi.sourceforge.net/DTD/sodipodi-0.dtd"
   xmlns="http://www.w3.org/2000/svg"
   xmlns:svg="http://www.w3.org/2000/svg">
  <sodipodi:namedview
     id="namedview1"
     pagecolor="#505050"
     bordercolor="#eeeeee"
     borderopacity="1"
     inkscape:showpageshadow="0"
     inkscape:pageopacity="0"
     inkscape:pagecheckerboard="0"
     inkscape:deskcolor="#505050"
     inkscape:document-units="px"
     showgrid="true"
     inkscape:zoom="0.47"
     inkscape:cx="896.80851"
     inkscape:cy="256.38298"
     inkscape:window-width="1366"
     inkscape:window-height="705"
     inkscape:window-x="-8"
     inkscape:window-y="-8"
     inkscape:window-maximized="1"
     inkscape:current-layer="svg1">
    <inkscape:grid
       id="grid1"
       units="px"
       originx="0"
       originy="0"
       spacingx="0.26458332"
       spacingy="0.26458334"
       empcolor="#0099e5"
       empopacity="0.30196078"
       color="#0099e5"
       opacity="0.14901961"
       empspacing="32"
       dotted="false"
       gridanglex="30"
       gridanglez="30"
       visible="true" />
  </sodipodi:namedview>
  <defs
     id="defs1" />
  <path
     style="fill:#802040;fill-opacity:1;stroke-width:1.00012;stroke-linecap:round;stroke-linejoin:round"
     d="M 0,33.866666 33.866666,0 508,1.4511718e-6 541.86666,33.866667 l -10e-6,203.200003 -33.86666,33.86667 H 33.866658 L -7.9528954e-6,237.06667 Z"
     id="path1"
     sodipodi:nodetypes="ccccccccc" />
  <path
     style="fill:#e04060;fill-opacity:1;stroke-width:0.875105;stroke-linecap:round;stroke-linejoin:round"
     d="M 533.39998,38.099995 503.76665,8.466666 38.099995,8.4666675 8.4666655,38.099996 l 10e-6,194.733334 29.6333295,29.63334 H 503.76666 l 29.63333,-29.63334 z"
     id="path2"
     sodipodi:nodetypes="ccccccccc" />
  <path
     id="path3"
     style="fill:#802040;fill-opacity:1;stroke-width:1.00012;stroke-linecap:round;stroke-linejoin:round"
     d="m 84.666665,33.866666 a 8.4666662,8.4666662 0 0 1 8.46666,8.466667 8.4666662,8.4666662 0 0 1 -8.46666,8.466666 h -33.86667 a 8.4666662,8.4666662 0 0 1 -8.46667,-8.466666 8.4666662,8.4666662 0 0 1 8.46667,-8.466667 z m 8.46666,25.4 A 8.4666662,8.4666662 0 0 1 101.6,67.733332 8.4666662,8.4666662 0 0 1 93.133325,76.199999 h -50.8 a 8.4666662,8.4666662 0 0 1 -8.46666,-8.466667 8.4666662,8.4666662 0 0 1 8.46666,-8.466666 z m -8.46666,25.4 a 8.4666662,8.4666662 0 0 1 8.46666,8.466666 8.4666662,8.4666662 0 0 1 -8.46666,8.466668 h -33.86667 a 8.4666662,8.4666662 0 0 1 -8.46667,-8.466668 8.4666662,8.4666662 0 0 1 8.46667,-8.466666 z" />
  <path
     id="text1"
     style="font-size:56.4444px;font-family:Rajdhani;-inkscape-font-specification:Rajdhani;fill:#802040;fill-opacity:1;stroke-width:11.8507"
     d="m 135.69029,42.333333 c -2.77392,0 -4.91551,0.737608 -6.42537,2.212354 C 127.75506,46.020433 127,48.144575 127,50.918501 v 16.69633 c 0,2.773926 0.75506,4.898068 2.26492,6.372814 1.50986,1.474746 3.65145,2.212354 6.42537,2.212354 h 5.74113 c 2.73881,0 4.86344,-0.737608 6.37329,-2.212354 1.54498,-1.509859 2.31699,-3.634 2.31699,-6.372814 v -2.475638 c 0,-0.772486 -0.38624,-1.158737 -1.15873,-1.158737 h -4.42422 c -0.73737,0 -1.1057,0.386251 -1.1057,1.158737 v 2.159311 c 0,1.123616 -0.24571,1.931496 -0.73729,2.423078 -0.45647,0.456469 -1.2469,0.68473 -2.37052,0.68473 h -3.58133 c -1.0885,0 -1.87845,-0.228261 -2.37004,-0.68473 C 133.91741,69.23 133.68915,68.42212 133.68915,67.298504 V 51.234345 c 0,-1.123615 0.22826,-1.913565 0.68472,-2.370035 0.49159,-0.491582 1.28154,-0.73729 2.37004,-0.73729 h 3.58133 c 1.12362,0 1.91405,0.245708 2.37052,0.73729 0.49158,0.45647 0.73729,1.24642 0.73729,2.370035 v 2.159794 c 0,0.772486 0.36833,1.158738 1.1057,1.158738 h 4.42422 c 0.77249,0 1.15873,-0.386252 1.15873,-1.158738 v -2.475638 c 0,-2.738813 -0.77201,-4.845508 -2.31699,-6.320254 -1.50985,-1.509858 -3.63448,-2.264914 -6.37329,-2.264914 z m 28.33627,0 c -2.77393,0 -4.91552,0.737608 -6.42537,2.212354 -1.50987,1.474746 -2.26493,3.598888 -2.26493,6.372814 v 16.69633 c 0,2.773926 0.75506,4.898068 2.26493,6.372814 1.50985,1.474746 3.65144,2.212354 6.42537,2.212354 h 5.89928 c 2.77393,0 4.91552,-0.737608 6.42538,-2.212354 1.50986,-1.474746 2.26491,-3.598888 2.26491,-6.372814 v -16.69633 c 0,-2.773926 -0.75505,-4.898068 -2.26491,-6.372814 -1.50986,-1.474746 -3.65145,-2.212354 -6.42538,-2.212354 z m 22.01601,0 c -0.73738,0 -1.10618,0.368805 -1.10618,1.106178 v 31.654311 c 0,0.737373 0.3688,1.106177 1.10618,1.106177 h 17.32849 c 0.70226,0 1.05314,-0.368804 1.05314,-1.106177 V 71.51249 c 0,-0.772487 -0.35088,-1.158738 -1.05314,-1.158738 h -11.11337 c -0.42135,0 -0.63216,-0.193366 -0.63216,-0.57961 V 43.439511 c 0,-0.737373 -0.36881,-1.106178 -1.10618,-1.106178 z m 23.64875,0 c -0.73737,0 -1.10618,0.368805 -1.10618,1.106178 v 31.654311 c 0,0.737373 0.36881,1.106177 1.10618,1.106177 h 17.32802 c 0.70226,0 1.05362,-0.368804 1.05362,-1.106177 V 71.51249 c 0,-0.772487 -0.35136,-1.158738 -1.05362,-1.158738 h -11.11337 c -0.42136,0 -0.63169,-0.193366 -0.63169,-0.57961 V 43.439511 c 0,-0.737373 -0.3688,-1.106178 -1.10618,-1.106178 z m 23.64827,0 c -0.73737,0 -1.10569,0.368805 -1.10569,1.106178 v 31.654311 c 0,0.737373 0.36832,1.106177 1.10569,1.106177 h 17.2229 c 0.70226,0 1.05361,-0.368804 1.05361,-1.106177 V 71.51249 c 0,-0.737373 -0.35135,-1.106178 -1.05361,-1.106178 h -11.00777 c -0.42135,0 -0.63217,-0.193366 -0.63217,-0.579609 v -7.320828 c 0,-0.386243 0.21082,-0.57961 0.63217,-0.57961 h 9.00662 c 0.73737,0 1.10617,-0.368322 1.10617,-1.105695 v -3.581815 c 0,-0.737373 -0.3688,-1.106177 -1.10617,-1.106177 h -9.00662 c -0.42135,0 -0.63217,-0.192884 -0.63217,-0.579127 v -6.847303 c 0,-0.386244 0.21082,-0.579128 0.63217,-0.579128 h 11.00777 c 0.70226,0 1.05361,-0.368804 1.05361,-1.106177 v -3.581332 c 0,-0.737373 -0.35135,-1.106178 -1.05361,-1.106178 z m 32.28648,0 c -2.77393,0 -4.91552,0.737608 -6.42538,2.212354 -1.50985,1.474746 -2.26491,3.598888 -2.26491,6.372814 v 16.69633 c 0,2.773926 0.75506,4.898068 2.26491,6.372814 1.50986,1.474746 3.65145,2.212354 6.42538,2.212354 h 5.74112 c 2.73882,0 4.86296,-0.737608 6.37282,-2.212354 1.54497,-1.509859 2.31748,-3.634 2.31748,-6.372814 v -2.475638 c 0,-0.772486 -0.38625,-1.158737 -1.15874,-1.158737 h -4.42423 c -0.73737,0 -1.10569,0.386251 -1.10569,1.158737 v 2.159311 c 0,1.123616 -0.24619,1.931496 -0.73778,2.423078 -0.45646,0.456469 -1.24642,0.68473 -2.37003,0.68473 h -3.58133 c -1.08851,0 -1.87845,-0.228261 -2.37004,-0.68473 C 263.85319,69.23 263.62493,68.42212 263.62493,67.298504 V 51.234345 c 0,-1.123615 0.22826,-1.913565 0.68472,-2.370035 0.49159,-0.491582 1.28153,-0.73729 2.37004,-0.73729 h 3.58133 c 1.12361,0 1.91357,0.245708 2.37003,0.73729 0.49159,0.45647 0.73778,1.24642 0.73778,2.370035 v 2.159794 c 0,0.772486 0.36832,1.158738 1.10569,1.158738 h 4.42423 c 0.77249,0 1.15874,-0.386252 1.15874,-1.158738 v -2.475638 c 0,-2.738813 -0.77251,-4.845508 -2.31748,-6.320254 -1.50986,-1.509858 -3.634,-2.264914 -6.37282,-2.264914 z m 18.48723,0 c -0.73737,0 -1.10617,0.368805 -1.10617,1.106178 v 3.581332 c 0,0.737373 0.3688,1.106177 1.10617,1.106177 h 6.00441 c 0.38625,0 0.57914,0.192884 0.57914,0.579128 v 26.387674 c 0,0.737373 0.38624,1.106177 1.15873,1.106177 h 4.42423 c 0.73737,0 1.10617,-0.368804 1.10617,-1.106177 V 48.706148 c 0,-0.386244 0.21082,-0.579128 0.63217,-0.579128 h 6.00393 c 0.73737,0 1.10618,-0.368804 1.10618,-1.106177 v -3.581332 c 0,-0.737373 -0.36881,-1.106178 -1.10618,-1.106178 z m 26.3872,0 c -0.73737,0 -1.1057,0.368805 -1.1057,1.106178 v 31.654311 c 0,0.737373 0.36833,1.106177 1.1057,1.106177 h 4.47727 c 0.73737,0 1.10569,-0.368804 1.10569,-1.106177 V 43.439511 c 0,-0.737373 -0.36832,-1.106178 -1.10569,-1.106178 z m 11.16593,0 c -0.94805,0 -1.29893,0.403699 -1.05314,1.211298 l 8.16372,31.549191 c 0.14045,0.737373 0.57953,1.106177 1.31691,1.106177 h 6.89937 c 0.66715,0 1.08878,-0.368804 1.26435,-1.106177 l 8.16372,-31.549191 c 0.17556,-0.807599 -0.17579,-1.211298 -1.05362,-1.211298 h -4.95079 c -0.70226,0 -1.12341,0.368805 -1.26386,1.106178 l -5.5304,25.913184 h -0.21073 l -5.5304,-25.913184 c -0.14046,-0.737373 -0.5616,-1.106178 -1.26386,-1.106178 z m 30.07461,0 c -0.73738,0 -1.10618,0.368805 -1.10618,1.106178 v 31.654311 c 0,0.737373 0.3688,1.106177 1.10618,1.106177 h 17.22289 c 0.70226,0 1.05313,-0.368804 1.05313,-1.106177 V 71.51249 c 0,-0.737373 -0.35087,-1.106178 -1.05313,-1.106178 h -11.00776 c -0.42136,0 -0.63217,-0.193366 -0.63217,-0.579609 v -7.320828 c 0,-0.386243 0.21081,-0.57961 0.63217,-0.57961 h 9.00613 c 0.73737,0 1.10618,-0.368322 1.10618,-1.105695 v -3.581815 c 0,-0.737373 -0.36881,-1.106177 -1.10618,-1.106177 h -9.00613 c -0.42136,0 -0.63217,-0.192884 -0.63217,-0.579127 v -6.847303 c 0,-0.386244 0.21081,-0.579128 0.63217,-0.579128 h 11.00776 c 0.70226,0 1.05313,-0.368804 1.05313,-1.106177 v -3.581332 c 0,-0.737373 -0.35087,-1.106178 -1.05313,-1.106178 z M 165.08017,48.12702 h 3.7395 c 1.12361,0 1.91356,0.245708 2.37003,0.73729 0.49159,0.45647 0.7373,1.24642 0.7373,2.370035 v 16.064159 c 0,1.123616 -0.24571,1.931496 -0.7373,2.423078 -0.45647,0.456469 -1.24642,0.68473 -2.37003,0.68473 h -3.7395 c -1.12362,0 -1.91356,-0.228261 -2.37004,-0.68473 C 162.25367,69.23 162.02541,68.42212 162.02541,67.298504 V 51.234345 c 0,-1.123615 0.22826,-1.913565 0.68472,-2.370035 0.45648,-0.491582 1.24642,-0.73729 2.37004,-0.73729 z" />
  <path
     id="rect1"
     style="fill:#802040;fill-opacity:1;stroke-width:16.0372"
     d="M 127 84.666666 L 127 93.133332 L 370.0172 93.133332 L 370.0172 84.666666 L 127 84.666666 z " />
</svg>
