<?xml version="1.0" encoding="UTF-8" standalone="no"?>
<svg
   width="2560"
   height="2048"
   viewBox="0 0 677.333 541.867"
   version="1.1"
   id="svg27"
   sodipodi:docname="compass.svg"
   inkscape:export-filename="compass.png"
   inkscape:export-xdpi="96"
   inkscape:export-ydpi="96"
   inkscape:version="1.3 (0e150ed6c4, 2023-07-21)"
   xmlns:inkscape="http://www.inkscape.org/namespaces/inkscape"
   xmlns:sodipodi="http://sodipodi.sourceforge.net/DTD/sodipodi-0.dtd"
   xmlns="http://www.w3.org/2000/svg"
   xmlns:svg="http://www.w3.org/2000/svg">
  <sodipodi:namedview
     id="namedview27"
     pagecolor="#505050"
     bordercolor="#eeeeee"
     borderopacity="1"
     inkscape:showpageshadow="0"
     inkscape:pageopacity="0"
     inkscape:pagecheckerboard="0"
     inkscape:deskcolor="#505050"
     inkscape:zoom="0.20273437"
     inkscape:cx="1280"
     inkscape:cy="1023.5067"
     inkscape:window-width="1366"
     inkscape:window-height="705"
     inkscape:window-x="-8"
     inkscape:window-y="-8"
     inkscape:window-maximized="1"
     inkscape:current-layer="svg27" />
  <path
     d="M 0,0 V 541.867 H 677.333 V 0 Z"
     style="display:none;fill:#202020;fill-opacity:1;fill-rule:evenodd;stroke:none;stroke-width:4.23332;stroke-linecap:round;stroke-linejoin:round;stroke-dasharray:none;stroke-opacity:1;paint-order:stroke fill markers"
     id="path1" />
  <path
     d="M541.867 135.467H609.6V203.2h-67.733z"
     style="color:#000;fill:#ffc0e0;fill-rule:evenodd;stroke-width:8.46667;stroke-linecap:round;stroke-linejoin:round;-inkscape-stroke:none;paint-order:stroke fill markers"
     id="path2" />
  <path
     d="M541.867 406.4H609.6v67.733h-67.733z"
     style="color:#000;fill:teal;fill-rule:evenodd;stroke-width:8.46667;stroke-linecap:round;stroke-linejoin:round;-inkscape-stroke:none;paint-order:stroke fill markers"
     id="path3" />
  <path
     d="M541.867 338.667H609.6V406.4h-67.733z"
     style="color:#000;fill:#80c0c0;fill-rule:evenodd;stroke-width:8.46667;stroke-linecap:round;stroke-linejoin:round;-inkscape-stroke:none;paint-order:stroke fill markers"
     id="path4" />
  <path
     d="M541.867 203.2v135.467H609.6V203.2Z"
     style="color:#000;fill:#e0e0e0;fill-rule:evenodd;stroke-width:8.46667;stroke-linecap:round;stroke-linejoin:round;-inkscape-stroke:none;paint-order:stroke fill markers"
     id="path5" />
  <path
     d="M541.867 67.733H609.6v67.734h-67.733z"
     style="color:#000;fill:#ff80a0;fill-rule:evenodd;stroke-width:8.46667;stroke-linecap:round;stroke-linejoin:round;-inkscape-stroke:none;paint-order:stroke fill markers"
     id="path6" />
  <path
     d="M541.867 67.733v406.4H609.6v-406.4Zm4.232 4.234h59.268v59.265H546.1zm.001 59.266h59.267v2.117H546.1zm0 6.35h59.267v63.5H546.1V139.7zm0 67.734h59.267v2.116H546.1zm0 2.117h59.267V336.55H546.1v-65.616zm0 133.35h59.267v2.116H546.1zm0 2.117h59.267v59.265H546.1zm0 59.266h59.267v2.116H546.1zm0 6.35h59.267V469.9H546.1v-59.268h.001z"
     style="color:#000;display:inline;fill:#000;fill-rule:evenodd;stroke-linecap:round;stroke-linejoin:round;-inkscape-stroke:none;paint-order:stroke fill markers"
     id="path7" />
  <defs
     id="defs7">
    <path
       id="a"
       d="M1920 64h576v192h-576z" />
  </defs>
  <path
     d="M67.733 67.733V101.6L83.17 86.164l184.77 184.77-184.77 184.77-15.437-15.437v33.866H101.6l-15.436-15.435 184.77-184.77 184.769 184.77-15.436 15.435h33.866v-33.866l-15.436 15.436-184.769-184.77 184.77-184.769 15.435 15.436V67.733h-33.866l15.436 15.437-184.77 184.77L86.164 83.17 101.6 67.733H70.727Z"
     style="color:#000;fill:#000;fill-rule:evenodd;stroke-linecap:round;stroke-linejoin:round;-inkscape-stroke:none;paint-order:markers fill stroke"
     id="path8" />
  <g
     stroke="none"
     style="display:inline;stroke:#000;stroke-width:8.46667;stroke-linecap:round;stroke-linejoin:round;stroke-dasharray:none;stroke-opacity:1;paint-order:markers fill stroke"
     id="g15">
    <path
       d="M186.765 67.733 127.25 127.25l47.895 47.895 39.677-39.677h56.112V67.733ZM127.25 127.25l-59.517 59.515v84.168h67.734v-56.112l39.677-39.677z"
       style="color:#000;fill:#e04060;fill-rule:evenodd;stroke:none;-inkscape-stroke:none"
       id="path9" />
    <path
       d="M67.733 270.933v84.168l59.517 59.517 47.894-47.895-39.677-39.678v-56.112z"
       style="color:#000;fill:#ff8040;fill-rule:evenodd;stroke:none;-inkscape-stroke:none"
       id="path10" />
    <path
       d="m175.144 366.723-47.895 47.895 59.516 59.515h84.168V406.4h-56.111z"
       style="color:#000;fill:#ff8040;fill-rule:evenodd;stroke:none;-inkscape-stroke:none"
       id="path11" />
    <path
       d="M366.723 366.723 327.046 406.4h-56.113v67.733h84.168l59.517-59.515z"
       style="color:#000;fill:#ffe040;fill-rule:evenodd;stroke:none;-inkscape-stroke:none"
       id="path12" />
    <path
       d="M406.4 270.933v56.112l-39.677 39.678 47.895 47.895 59.515-59.517v-84.168z"
       style="color:#000;fill:#ffe040;fill-rule:evenodd;stroke:none;-inkscape-stroke:none"
       id="path13" />
    <path
       d="m414.618 127.25-47.895 47.894L406.4 214.82v56.112h67.733v-84.168zM270.933 67.733v67.734h56.113l39.677 39.677 47.895-47.895L355.1 67.733z"
       style="color:#000;fill:#8060c0;fill-rule:evenodd;stroke:none;-inkscape-stroke:none"
       id="path14" />
    <path
       d="M268.817 67.732v.002h-82.052L67.733 186.765v168.336l119.032 119.032h168.336L474.133 355.1V186.765L355.1 67.733h-82.05zm-80.3 4.235h80.3v63.5h4.234v-63.5h80.296l12.356 12.355 42.928 42.926-.001.001 1.497 1.497-44.901 44.901 2.994 2.994 44.901-44.9 1.496 1.495h.001l55.283 55.282v78.181h-.001v2.118h-63.5v4.234h63.5v80.296l-55.283 55.284-1.496 1.496-44.901-44.901-2.994 2.994 44.9 44.901-1.496 1.497v.001l-55.282 55.28v.001H273.05v-63.5h-4.234v63.5h-80.298l-55.283-55.283-1.496-1.496 44.901-44.901-2.994-2.994-44.9 44.9-1.498-1.496-55.282-55.282V273.05h63.5v-4.234h-63.5v-80.298l56.779-56.78 44.9 44.902 2.995-2.994-44.901-44.901 1.496-1.496v-.001z"
       style="color:#000;display:inline;fill:#000;fill-rule:evenodd;stroke:none;stroke-width:8.46667;stroke-linecap:round;stroke-linejoin:round;stroke-dasharray:none;stroke-opacity:1;-inkscape-stroke:none;paint-order:markers fill stroke"
       id="path15" />
  </g>
  <g
     stroke="none"
     style="display:inline;stroke:#000;stroke-width:8.46667;stroke-linecap:round;stroke-linejoin:round;stroke-dasharray:none;stroke-opacity:1;paint-order:markers fill stroke"
     id="g24">
    <path
       d="m214.821 135.467-39.677 39.677 47.895 47.895 19.838-19.839h28.056v-67.733z"
       style="color:#000;fill:#e08080;fill-rule:evenodd;stroke:none;stroke-width:8.46667;-inkscape-stroke:none"
       id="path16" />
    <path
       d="m175.144 175.144-39.677 39.677v56.112H203.2v-28.056l19.839-19.838z"
       style="color:#000;fill:#e08080;fill-rule:evenodd;stroke:none;stroke-width:8.46667;-inkscape-stroke:none"
       id="path17" />
    <path
       d="M135.467 270.933v56.112l39.677 39.678 47.895-47.895L203.2 298.99v-28.056z"
       style="color:#000;fill:#ffa080;fill-rule:evenodd;stroke:none;stroke-width:8.46667;-inkscape-stroke:none"
       id="path18" />
    <path
       d="m223.039 318.828-47.895 47.895 39.678 39.677h56.111v-67.733h-28.056z"
       style="color:#000;fill:#ffa080;fill-rule:evenodd;stroke:none;stroke-width:8.46667;-inkscape-stroke:none"
       id="path19" />
    <path
       d="m318.828 318.828-19.839 19.839h-28.056V406.4h56.113l39.677-39.677z"
       style="color:#000;fill:#ffe080;fill-rule:evenodd;stroke:none;stroke-width:8.46667;-inkscape-stroke:none"
       id="path20" />
    <path
       d="M338.667 270.933v28.056l-19.839 19.84 47.895 47.894 39.677-39.678v-56.112z"
       style="color:#000;fill:#ffe080;fill-rule:evenodd;stroke:none;stroke-width:8.46667;-inkscape-stroke:none"
       id="path21" />
    <path
       d="m366.723 175.144-47.895 47.895 19.839 19.838v28.056H406.4v-56.112z"
       style="color:#000;fill:#c0a0c0;fill-rule:evenodd;stroke:none;stroke-width:8.46667;-inkscape-stroke:none"
       id="path22" />
    <path
       d="M270.933 135.467V203.2h28.056l19.84 19.839 47.894-47.895-39.677-39.677z"
       style="color:#000;fill:#c0a0c0;fill-rule:evenodd;stroke:none;stroke-width:8.46667;stroke-linecap:round;stroke-linejoin:round;stroke-dasharray:none;stroke-opacity:1;-inkscape-stroke:none;paint-order:markers fill stroke"
       id="path23" />
    <path
       d="m214.822 135.467-79.355 79.355v112.223l79.355 79.355h112.223l79.355-79.355V214.822l-79.355-79.355zm1.754 4.232 52.24.001v63.5h4.235v-63.5l52.242-.001 36.94 36.942-44.901 44.901 2.993 2.993 44.9-44.901 36.941 36.94v52.243h-63.5v4.234h63.5v52.24l-36.94 36.942-44.902-44.901-2.992 2.992 44.901 44.901-36.94 36.941H273.05v-63.5h-4.234v63.5h-52.242l-36.941-36.94 44.901-44.901-2.993-2.993-44.901 44.9-36.941-36.94V273.05h63.5v-4.234h-63.5l-.001-52.243 36.941-36.94 44.902 44.902 2.994-2.994-44.901-44.902z"
       style="color:#000;display:inline;fill:#000;fill-rule:evenodd;stroke:none;stroke-width:8.46667;stroke-linecap:round;stroke-linejoin:round;stroke-dasharray:none;stroke-opacity:1;paint-order:markers fill stroke"
       id="path24" />
  </g>
  <g
     stroke="none"
     style="display:inline;stroke:#000;stroke-width:8.46667;stroke-linecap:round;stroke-linejoin:round;stroke-dasharray:none;stroke-opacity:1;paint-order:markers fill stroke"
     id="g26">
    <path
       d="M242.877 203.2 203.2 242.877v56.112l39.677 39.678h56.112l39.678-39.678v-56.112L298.989 203.2Z"
       style="color:#000;fill:#e0e0e0;fill-rule:evenodd;stroke:none;stroke-width:8.46667;stroke-linecap:round;stroke-linejoin:round;stroke-dasharray:none;stroke-opacity:1;-inkscape-stroke:none;paint-order:markers fill stroke"
       id="path25" />
    <path
       d="M242.877 203.2 203.2 242.877v56.112l39.677 39.678h56.112l39.678-39.678v-56.112L298.989 203.2Zm1.754 4.234h52.605l37.198 37.197v52.605l-37.198 37.198h-52.605l-37.197-37.198v-52.605z"
       style="color:#000;fill:#000;fill-opacity:1;fill-rule:evenodd;stroke:none;stroke-width:8.46667;stroke-linecap:round;stroke-linejoin:round;stroke-dasharray:none;stroke-opacity:1;-inkscape-stroke:none;paint-order:markers fill stroke"
       id="path26" />
  </g>
  <path
     d="M532.875 33.867a.453.453 0 0 0-.453.453v15.788c0 .239.191.453.453.453h2.815a.47.47 0 0 0 .453-.453v-5.795h5.437a.47.47 0 0 0 .454-.454v-2.598a.47.47 0 0 0-.454-.454h-5.437v-3.434h6.607a.453.453 0 0 0 .453-.453v-2.6a.453.453 0 0 0-.453-.453zm13.094 0a.47.47 0 0 0-.453.453v10.136c0 3.625 3.029 6.344 6.773 6.344 3.769 0 6.822-2.719 6.822-6.344V34.32a.47.47 0 0 0-.454-.453h-2.933a.453.453 0 0 0-.454.453v9.945c0 1.741-1.264 2.72-2.98 2.72-1.694 0-2.934-.979-2.934-2.72V34.32a.453.453 0 0 0-.454-.453zm15.932 0a.453.453 0 0 0-.454.453v2.6c0 .238.191.453.454.453h3.41v12.735c0 .239.214.453.453.453h2.863a.47.47 0 0 0 .453-.453V37.373h3.41a.453.453 0 0 0 .453-.453v-2.6a.453.453 0 0 0-.453-.453zm13.832 0a.47.47 0 0 0-.453.453v10.136c0 3.625 3.03 6.344 6.774 6.344 3.768 0 6.821-2.719 6.821-6.344V34.32a.47.47 0 0 0-.453-.453h-2.934a.453.453 0 0 0-.453.453v9.945c0 1.741-1.264 2.72-2.981 2.72-1.693 0-2.934-.979-2.934-2.72V34.32a.453.453 0 0 0-.453-.453zm17.197 0a.453.453 0 0 0-.454.453v15.788c0 .239.191.453.454.453h2.837a.47.47 0 0 0 .453-.453v-6.082h1.646l3.172 6.32a.44.44 0 0 0 .382.215h3.172c.405 0 .572-.382.405-.692l-3.267-6.057c2.218-.835 3.53-2.6 3.53-4.794 0-2.838-2.17-5.151-5.2-5.151zm15.788 0a.453.453 0 0 0-.453.453v15.788c0 .239.19.453.453.453h9.873a.453.453 0 0 0 .453-.453v-2.6a.452.452 0 0 0-.453-.452h-6.606v-3.22h5.438c.238 0 .453-.19.453-.453v-2.6a.47.47 0 0 0-.453-.453h-5.438v-2.957h6.606a.453.453 0 0 0 .453-.453v-2.6a.453.453 0 0 0-.453-.453zm-12.498 3.41h3.53c.978 0 1.813.692 1.813 1.813 0 1.12-.835 1.907-1.813 1.907h-3.53zm-450.095 16.81a.441.441 0 0 0-.323.13l-6.884 6.884a.447.447 0 0 0 0 .632l11.009 11.01a.448.448 0 0 0 .632 0l6.884-6.886a.447.447 0 0 0 0-.632l-1.813-1.812a.445.445 0 0 0-.63 0l-4.607 4.607-2.245-2.246 3.791-3.79a.447.447 0 0 0 0-.633l-1.813-1.813a.463.463 0 0 0-.632 0l-3.79 3.791-2.063-2.061 4.606-4.606a.447.447 0 0 0 0-.632l-1.813-1.813a.45.45 0 0 0-.31-.13zm249.107 1.358a.447.447 0 0 0-.317.125l-11.008 11.008a.463.463 0 0 0 0 .632l1.979 1.98a.447.447 0 0 0 .632 0l4.373-4.374 4.756 4.756-4.373 4.373a.447.447 0 0 0 0 .632l1.979 1.98a.463.463 0 0 0 .632 0l11.009-11.01a.463.463 0 0 0 0-.631l-1.98-1.98a.447.447 0 0 0-.632 0l-4.19 4.191-4.756-4.756 4.19-4.19a.447.447 0 0 0 0-.632l-1.979-1.98a.446.446 0 0 0-.315-.124zm-257.904 7.407a.466.466 0 0 0-.306.145l-2.211 2.212a.461.461 0 0 0-.1.466l3.326 8.813-.1.1-8.814-3.326a.46.46 0 0 0-.465.1l-2.212 2.212c-.25.25-.167.599.15.715l16.38 6.003c.15.05.333.033.466-.1l.165-.165a.448.448 0 0 0 .1-.466l-5.97-16.414c-.072-.197-.236-.304-.41-.295zm270.51 5.199a.446.446 0 0 0-.317.124l-11.009 11.009a.463.463 0 0 0 0 .632l1.996 1.996a.463.463 0 0 0 .632 0l11.009-11.01a.463.463 0 0 0 0-.631l-1.996-1.996a.446.446 0 0 0-.316-.124zm5.248 5.248a.45.45 0 0 0-.31.131l-11.009 11.01a.447.447 0 0 0 0 .631l6.885 6.885a.447.447 0 0 0 .632 0l1.813-1.813a.446.446 0 0 0-.001-.632l-4.606-4.606 2.245-2.245 3.791 3.792c.167.166.45.182.632 0l1.813-1.813a.463.463 0 0 0 0-.632l-3.79-3.792 2.061-2.062 4.606 4.607a.447.447 0 0 0 .632 0l1.813-1.813a.447.447 0 0 0 0-.632l-6.885-6.885a.441.441 0 0 0-.322-.13zm-288.237 2.062a.446.446 0 0 0-.316.125l-1.995 1.996a.463.463 0 0 0 0 .632l11.009 11.008a.463.463 0 0 0 .632 0l1.995-1.995a.463.463 0 0 0 0-.632l-11.009-11.01a.447.447 0 0 0-.316-.124zm-4.367 4.368a.44.44 0 0 0-.322.131l-7.384 7.383a.447.447 0 0 0 0 .632l1.813 1.813a.447.447 0 0 0 .632 0l2.378-2.378 8.88 8.88a.463.463 0 0 0 .632 0l1.995-1.995a.463.463 0 0 0 0-.632l-8.88-8.88 2.378-2.378a.447.447 0 0 0 0-.632l-1.812-1.813a.452.452 0 0 0-.31-.131zm302.216 3.182a.451.451 0 0 0-.31.131l-11.008 11.01a.447.447 0 0 0 0 .631l1.978 1.979a.463.463 0 0 0 .632 0l4.24-4.24 1.149 1.146-2.196 6.62a.433.433 0 0 0 .117.415l2.21 2.212c.284.283.666.133.766-.2l1.946-6.502c2.128.965 4.274.648 5.804-.882 1.978-1.979 2.078-5.104-.034-7.216l-4.972-4.973a.44.44 0 0 0-.322-.13zm.239 4.804 2.461 2.46c.682.683.782 1.747 0 2.529-.781.781-1.913.748-2.594.066l-2.461-2.46zm-310.144 2.273c-2.162.1-3.909.814-5.572 2.477a8.471 8.471 0 0 0 0 12.007c3.326 3.326 8.648 3.292 11.974-.033 1.48-1.48 2.395-3.426 2.428-5.654 0-.233-.2-.465-.432-.465l-2.677-.084c-.216-.017-.433.2-.45.415-.082 1.115-.515 2.113-1.43 3.028-1.879 1.879-4.806 1.745-6.652-.1-1.862-1.863-2.045-4.807-.166-6.686.815-.815 1.813-1.314 3.093-1.397a.411.411 0 0 0 .416-.415l-.05-2.645c0-.266-.2-.465-.482-.448zm324.914 7.634a.438.438 0 0 0-.12.022l-16.396 5.986c-.316.116-.4.465-.15.715l1.83 1.83c.332.332.714.315.997.198l1.93-.731 4.523 4.523-.715 1.913c-.166.466-.133.698.166.998l1.846 1.846c.25.25.598.165.715-.15l5.986-16.397a.478.478 0 0 0-.1-.466l-.165-.166a.465.465 0 0 0-.347-.121zm-337.563 2.445a.441.441 0 0 0-.323.131l-6.885 6.885a.447.447 0 0 0 0 .632l11.01 11.009a.446.446 0 0 0 .631 0l6.885-6.885a.447.447 0 0 0 0-.632l-1.812-1.813a.446.446 0 0 0-.632 0l-4.607 4.607-2.245-2.245 3.792-3.792a.447.447 0 0 0 0-.632l-1.812-1.813a.463.463 0 0 0-.632 0l-3.792 3.792-2.062-2.061 4.606-4.607a.447.447 0 0 0 0-.632l-1.813-1.813a.45.45 0 0 0-.31-.13zm332.904 2.815.017.017-1.48 4.007-2.528-2.527zm11.8 2.18a.45.45 0 0 0-.309.131l-11.009 11.009a.447.447 0 0 0 0 .632l1.979 1.978a.463.463 0 0 0 .632 0l4.24-4.24 1.148 1.148-2.195 6.619a.433.433 0 0 0 .117.415l2.211 2.212c.283.283.665.133.765-.2l1.945-6.502c2.129.964 4.275.648 5.805-.882 1.98-1.978 2.078-5.105-.034-7.217l-4.972-4.972a.441.441 0 0 0-.322-.13zm.24 4.804 2.461 2.462c.682.681.782 1.745 0 2.526-.782.782-1.912.75-2.594.068l-2.462-2.462zM86.75 113.46a.447.447 0 0 0-.316.125l-1.978 1.979a.447.447 0 0 0 0 .632l11.008 11.009c.167.166.45.183.632 0l6.253-6.253a.447.447 0 0 0 0-.632l-1.813-1.813a.446.446 0 0 0-.632.001l-3.957 3.958-8.881-8.88a.446.446 0 0 0-.316-.126zm368.615 5.103c-2.17 0-4.34.832-6.003 2.495-3.326 3.326-3.293 8.647.033 11.973 1.48 1.48 3.426 2.395 5.654 2.428.233 0 .466-.199.466-.432l.083-2.677c.017-.216-.2-.433-.415-.45-1.115-.083-2.112-.514-3.027-1.429-1.88-1.88-1.747-4.806.1-6.652 1.862-1.863 4.805-2.046 6.684-.167.815.815 1.314 1.813 1.397 3.094 0 .233.183.415.416.415l2.644-.05a.437.437 0 0 0 .45-.481c-.1-2.162-.815-3.91-2.478-5.572a8.464 8.464 0 0 0-6.004-2.495zm-377.096 3.379a.446.446 0 0 0-.316.124l-1.979 1.98a.447.447 0 0 0 0 .631l11.009 11.009a.447.447 0 0 0 .632 0l6.253-6.253a.447.447 0 0 0 0-.632l-1.813-1.812a.446.446 0 0 0-.632 0l-3.958 3.958-8.88-8.88a.447.447 0 0 0-.316-.125zm388.886 5.427a.447.447 0 0 0-.316.125l-11.008 11.008a.463.463 0 0 0 0 .632l1.979 1.98a.447.447 0 0 0 .632 0l4.373-4.374 4.756 4.756-4.373 4.374a.447.447 0 0 0 0 .632l1.979 1.978a.463.463 0 0 0 .632 0l11.008-11.008a.463.463 0 0 0 0-.632l-1.978-1.979a.447.447 0 0 0-.632 0l-4.19 4.191-4.757-4.757 4.19-4.19a.447.447 0 0 0 0-.632l-1.979-1.98a.445.445 0 0 0-.316-.124zm-393.617 2.289a8.425 8.425 0 0 0-5.995 2.485c-3.326 3.326-3.293 8.648.033 11.974a8.392 8.392 0 0 0 11.94 0c3.327-3.326 3.343-8.63.017-11.957a8.478 8.478 0 0 0-5.995-2.502zm0 3.783c1.21.004 2.42.466 3.334 1.38 1.813 1.813 1.813 4.806-.016 6.635-1.813 1.813-4.806 1.813-6.619 0-1.83-1.829-1.846-4.84-.034-6.652a4.675 4.675 0 0 1 3.335-1.363zm404.86 5.17a.446.446 0 0 0-.417.357l-1.879 9.23-5.288 5.288a.447.447 0 0 0 0 .632l1.98 1.979a.463.463 0 0 0 .631 0l5.305-5.305 9.263-1.812c.35-.083.483-.483.216-.749l-2.162-2.161c-.15-.15-.299-.134-.415-.117l-5.721 1.097 1.097-5.72c.017-.117.017-.283-.116-.416l-2.162-2.162a.45.45 0 0 0-.332-.14zm-416.243 2.015c-2.162.1-3.908.814-5.571 2.477a8.472 8.472 0 0 0 0 12.007c3.326 3.326 8.647 3.292 11.973-.034 1.48-1.48 2.395-3.425 2.428-5.654 0-.232-.2-.465-.432-.465l-2.677-.083c-.216-.017-.433.199-.45.415-.083 1.114-.515 2.113-1.43 3.027-1.88 1.88-4.805 1.746-6.651-.1-1.863-1.863-2.046-4.806-.167-6.685.815-.815 1.813-1.313 3.094-1.397a.411.411 0 0 0 .415-.415l-.05-2.645c0-.266-.2-.465-.482-.448zm-4.68 235.33a.46.46 0 0 0-.308.134l-11.009 11.009c-.166.166-.183.448-.017.615l4.057 4.057c3.21 3.21 8.449 3.227 11.675 0 3.193-3.192 3.176-8.431-.034-11.64l-4.057-4.058a.409.409 0 0 0-.307-.116zm.157 4.856 1.746 1.747c1.88 1.88 1.613 4.573-.266 6.452-1.896 1.896-4.59 2.162-6.469.283l-1.746-1.747zm415.035 5.033a.447.447 0 0 0-.317.124l-1.978 1.979a.447.447 0 0 0 0 .632l11.009 11.009a.448.448 0 0 0 .632 0l6.252-6.253a.447.447 0 0 0 0-.632l-1.813-1.813a.446.446 0 0 0-.631 0l-3.958 3.959-8.88-8.88a.446.446 0 0 0-.316-.125zm-403.011 2.293a.447.447 0 0 0-.317.125L58.331 399.27a.463.463 0 0 0 0 .632l1.995 1.996a.463.463 0 0 0 .633 0l11.008-11.01a.463.463 0 0 0 0-.631l-1.996-1.995a.446.446 0 0 0-.315-.125zm4.745 6.296a4.469 4.469 0 0 0-3.232 1.312c-1.996 1.995-1.28 4.507-.45 6.901.566 1.63.733 2.694.035 3.393-.582.582-1.48.516-2.146-.15-1.047-1.047-1.297-2.494-1.447-3.276-.05-.283-.316-.549-.665-.465l-2.112.581c-.332.1-.433.3-.433.566 0 .765.3 2.86 2.462 5.022 2.445 2.445 5.654 2.196 7.367.483 2.262-2.262 1.18-4.974.433-7.152-.6-1.73-.815-2.81-.267-3.358.483-.482 1.231-.6 1.93.1.88.88 1.23 2.493 1.346 3.142.133.532.55.682.849.616l2.128-.433c.183-.05.516-.316.433-.632-.133-.865-.583-3.077-2.312-4.806-1.28-1.28-2.657-1.826-3.919-1.844zm389.033.344a.466.466 0 0 0-.347.121l-.165.166a.478.478 0 0 0-.1.466l5.986 16.397c.116.316.466.4.715.15l1.83-1.83c.333-.332.316-.714.2-.997l-.733-1.93 4.524-4.523 1.913.716c.465.166.698.132.998-.167l1.845-1.846c.25-.25.166-.598-.15-.715l-16.396-5.986a.448.448 0 0 0-.12-.022zm4.643 5.277 4.008 1.48-2.528 2.527-1.497-3.99zm-11.308 1.687a.447.447 0 0 0-.316.125l-2.046 2.045a.447.447 0 0 0 0 .632l6.935 6.935c1.214 1.214 1.014 2.777-.183 3.975-1.18 1.18-2.727 1.364-3.941.15l-6.935-6.935a.447.447 0 0 0-.632 0l-2.046 2.045a.463.463 0 0 0 0 .632l7.069 7.068c2.527 2.528 6.535 2.311 9.146-.3 2.627-2.627 2.86-6.652.333-9.18l-7.068-7.067a.445.445 0 0 0-.316-.125zm-371.203 1.936a.42.42 0 0 0-.295.083l-13.055 9.296c-.25.183-.249.483-.05.682l1.963 1.962a.457.457 0 0 0 .582.05l5.87-4.406.034.033-2.578 8.199c-.05.15 0 .366.1.466l.299.298a.55.55 0 0 0 .466.1l8.182-2.594.033.033-4.39 5.887c-.117.15-.1.433.05.582l1.962 1.963c.2.2.499.2.682-.05l9.296-13.055a.45.45 0 0 0-.033-.566l-.267-.265c-.083-.083-.299-.166-.449-.116l-11.041 3.326-.034-.034 3.326-11.042c.05-.15-.033-.366-.116-.449l-.266-.266a.436.436 0 0 0-.27-.117zm359.85 12.634a8.252 8.252 0 0 0-5.826 2.417l-4.057 4.059c-.167.166-.15.448.016.615l11.01 11.008c.166.167.448.183.614.017l4.058-4.058c3.21-3.21 3.226-8.447 0-11.674a8.159 8.159 0 0 0-5.814-2.384zm-.6 3.6c1.282-.059 2.597.488 3.654 1.545 1.896 1.896 2.162 4.59.283 6.47l-1.746 1.745-6.735-6.735 1.746-1.746c.822-.822 1.8-1.234 2.798-1.28zm-342.114.973a.457.457 0 0 0-.12.022l-16.396 5.986c-.316.117-.4.466-.15.715l1.83 1.83a.876.876 0 0 0 .997.2l1.93-.732 4.523 4.523-.716 1.913c-.166.465-.133.698.167.997l1.846 1.846c.25.25.599.166.715-.15l5.987-16.396a.48.48 0 0 0-.1-.466l-.166-.167a.465.465 0 0 0-.347-.121zm329.904 5.02a.446.446 0 0 0-.316.125l-1.996 1.996a.463.463 0 0 0 0 .632l11.009 11.008a.463.463 0 0 0 .632 0l1.996-1.995a.463.463 0 0 0 0-.632l-11.01-11.009a.448.448 0 0 0-.315-.125zm-334.563.24.016.017-1.48 4.008-2.527-2.528zm11.965 1.996a.41.41 0 0 0-.308.117l-11.175 11.207a.463.463 0 0 0 0 .632l1.979 1.98a.447.447 0 0 0 .632 0l6.203-6.203.017.016-.034 12.971c0 .267.067.433.233.6l.167.166c.166.166.415.216.615.017l11.192-11.192a.463.463 0 0 0 0-.632l-1.996-1.996a.446.446 0 0 0-.632 0l-5.903 5.904-.017-.017-.25-12.522c0-.266 0-.5-.166-.666l-.25-.249a.461.461 0 0 0-.307-.133zm318.696 1.635a.466.466 0 0 0-.306.146l-2.212 2.212a.46.46 0 0 0-.1.464l3.327 8.815-.1.1-8.814-3.326a.461.461 0 0 0-.466.1l-2.21 2.211c-.25.25-.167.599.148.715l16.38 6.004c.15.05.333.033.466-.1l.167-.167a.448.448 0 0 0 .1-.465l-5.97-16.414c-.073-.197-.237-.304-.41-.295zm-307.12 10.29a.45.45 0 0 0-.31.131l-1.812 1.813a.447.447 0 0 0 0 .632l2.378 2.378-8.88 8.88a.463.463 0 0 0 0 .632l1.995 1.996a.463.463 0 0 0 .632 0l8.88-8.88 2.378 2.378a.447.447 0 0 0 .632 0l1.813-1.813a.447.447 0 0 0 0-.632l-7.383-7.384a.441.441 0 0 0-.323-.13zm294.64 2.22a.446.446 0 0 0-.315.125l-1.996 1.995a.463.463 0 0 0 0 .632l11.01 11.01a.463.463 0 0 0 .631 0l1.996-1.996a.463.463 0 0 0 0-.632l-11.009-11.01a.447.447 0 0 0-.316-.124zm-284.878 7.542a.45.45 0 0 0-.31.131l-11.009 11.009a.447.447 0 0 0 0 .632l6.254 6.253a.447.447 0 0 0 .632 0l1.812-1.813a.446.446 0 0 0 0-.631l-3.958-3.958 8.88-8.88a.463.463 0 0 0 0-.633l-1.979-1.979a.44.44 0 0 0-.322-.13zm280.262.292a8.252 8.252 0 0 0-5.826 2.418l-4.058 4.058c-.166.166-.15.449.017.615l11.008 11.009c.167.166.45.183.615.016l4.059-4.057c3.21-3.21 3.226-8.448 0-11.674a8.159 8.159 0 0 0-5.815-2.385zm-.6 3.6c1.282-.058 2.597.489 3.654 1.546 1.896 1.896 2.162 4.59.283 6.469l-1.747 1.746-6.734-6.735L408.21 455c.822-.823 1.8-1.234 2.797-1.28zm-271.175 4.596a.446.446 0 0 0-.315.125l-11.009 11.008a.463.463 0 0 0 0 .632l1.995 1.996a.463.463 0 0 0 .632 0l11.009-11.009a.463.463 0 0 0 0-.632l-1.995-1.995a.447.447 0 0 0-.317-.125zm258.964 1.398a.446.446 0 0 0-.315.125l-1.996 1.995a.447.447 0 0 0 0 .632l5.903 5.903-.017.017-12.521.25c-.267 0-.5 0-.667.166l-.249.25c-.166.166-.182.449-.016.615l11.208 11.176a.463.463 0 0 0 .632 0l1.98-1.98a.447.447 0 0 0 0-.632l-6.204-6.203.016-.016 12.972.034c.266 0 .433-.068.6-.234l.166-.166c.166-.167.216-.416.017-.615l-11.192-11.192a.447.447 0 0 0-.317-.125zm-253.55 3.665a.41.41 0 0 0-.309.117l-11.174 11.208a.463.463 0 0 0 0 .632l1.979 1.979a.447.447 0 0 0 .632 0l6.202-6.203.017.017-.034 12.972c0 .266.067.431.233.598l.167.166c.166.166.415.217.615.017l11.192-11.192a.463.463 0 0 0 0-.632l-1.995-1.996a.447.447 0 0 0-.632 0l-5.904 5.904-.016-.017-.25-12.522c0-.266 0-.499-.166-.665l-.25-.25a.46.46 0 0 0-.307-.133zm240.928 8.958a.447.447 0 0 0-.316.124l-1.996 1.996a.463.463 0 0 0 0 .632l11.009 11.008a.463.463 0 0 0 .632 0l1.995-1.995a.463.463 0 0 0 0-.632l-11.008-11.009a.446.446 0 0 0-.316-.124zm-228.982 6.34a8.45 8.45 0 0 0-5.985 2.496c-3.326 3.326-3.292 8.614.017 11.924 2.412 2.41 5.205 3.043 5.205 3.043a.42.42 0 0 0 .399-.133l4.457-4.49c.166-.166.183-.449.016-.615l-3.342-3.343a.433.433 0 0 0-.632 0l-1.647 1.647c-.166.166-.165.432.017.615l1.048 1.047-.965.966c-.698-.3-1.263-.732-1.745-1.214-1.813-1.813-1.797-4.79.016-6.603 1.83-1.83 4.822-1.896 6.635-.083.815.815 1.331 1.763 1.381 2.977a.497.497 0 0 0 .465.432l2.71-.083c.267 0 .45-.216.416-.483-.15-2.111-1.097-4.223-2.494-5.62a8.408 8.408 0 0 0-5.972-2.48zm374.938 12.39c-.235 0-.447.188-.447.423l.024 15.828c0 .235.211.446.447.446h2.798a.446.446 0 0 0 .446-.446v-8.773h.025l9.148 9.197c.188.188.352.258.588.258h.235c.235 0 .447-.141.447-.423v-15.828a.462.462 0 0 0-.447-.447h-2.822a.446.446 0 0 0-.447.447v8.349h-.024l-9.03-8.678c-.189-.189-.353-.353-.588-.353zm23.33 0a.477.477 0 0 0-.4.26l-7.362 15.826c-.14.306.048.611.4.611h2.587c.47 0 .73-.282.847-.564l.847-1.882h6.397l.846 1.859c.212.447.4.587.824.587h2.61c.352 0 .54-.305.4-.611l-7.361-15.827a.479.479 0 0 0-.4-.26zm7.973.235a.446.446 0 0 0-.447.447v2.563c0 .236.188.447.447.447h3.362v12.559c0 .235.212.446.447.446h2.822a.462.462 0 0 0 .447-.446v-12.559h3.363a.447.447 0 0 0 .447-.447v-2.563a.446.446 0 0 0-.447-.447zm13.64 0a.462.462 0 0 0-.447.447v9.996c0 3.574 2.986 6.255 6.678 6.255 3.716 0 6.727-2.68 6.727-6.255v-9.996a.462.462 0 0 0-.447-.447h-2.893a.446.446 0 0 0-.447.447v9.807c0 1.717-1.246 2.681-2.94 2.681-1.67 0-2.891-.964-2.891-2.681v-9.807a.446.446 0 0 0-.447-.447zm16.956 0a.446.446 0 0 0-.447.447v15.569c0 .235.189.446.447.446h2.8a.462.462 0 0 0 .446-.446v-5.998h1.622l3.129 6.233a.432.432 0 0 0 .375.211h3.129c.4 0 .565-.375.4-.68l-3.222-5.975c2.187-.823 3.48-2.564 3.48-4.727 0-2.8-2.14-5.08-5.127-5.08zm15.569 0a.446.446 0 0 0-.447.447v15.569c0 .235.188.446.447.446h9.737a.446.446 0 0 0 .447-.446v-2.564a.446.446 0 0 0-.447-.446h-6.515v-3.175h5.363a.446.446 0 0 0 .446-.447v-2.564a.462.462 0 0 0-.446-.446h-5.363v-2.917h6.515a.447.447 0 0 0 .447-.447v-2.563a.446.446 0 0 0-.447-.447zm-12.323 3.363h3.48c.965 0 1.788.682 1.788 1.787 0 1.106-.823 1.882-1.787 1.882h-3.48zm-41.72 3.575h.022l1.787 3.88h-3.574z"
     style="font-style:normal;font-variant:normal;font-weight:700;font-stretch:normal;font-size:48px;font-family:&quot;Brandon Text&quot;;-inkscape-font-specification:&quot;Brandon Text Bold&quot;;text-align:center;text-anchor:middle;white-space:pre;shape-inside:url(#a);fill:#fff;fill-opacity:1;fill-rule:evenodd;stroke:#000;stroke-width:8.46667;stroke-linecap:round;stroke-linejoin:round;stroke-dasharray:none;stroke-opacity:1;paint-order:stroke fill markers"
     id="path27" />
</svg>
