<?xml version="1.0" encoding="UTF-8" standalone="no"?>
<!-- Created with Inkscape (http://www.inkscape.org/) -->

<svg
   width="2048"
   height="1024"
   viewBox="0 0 541.86664 270.93334"
   version="1.1"
   id="svg1"
   inkscape:version="1.3 (0e150ed6c4, 2023-07-21)"
   sodipodi:docname="dismantling.svg"
   xml:space="preserve"
   xmlns:inkscape="http://www.inkscape.org/namespaces/inkscape"
   xmlns:sodipodi="http://sodipodi.sourceforge.net/DTD/sodipodi-0.dtd"
   xmlns="http://www.w3.org/2000/svg"
   xmlns:svg="http://www.w3.org/2000/svg"><sodipodi:namedview
     id="namedview1"
     pagecolor="#505050"
     bordercolor="#eeeeee"
     borderopacity="1"
     inkscape:showpageshadow="0"
     inkscape:pageopacity="0"
     inkscape:pagecheckerboard="0"
     inkscape:deskcolor="#505050"
     inkscape:document-units="px"
     showgrid="true"
     inkscape:zoom="1.0717735"
     inkscape:cx="251.91891"
     inkscape:cy="223.4614"
     inkscape:window-width="1366"
     inkscape:window-height="705"
     inkscape:window-x="-8"
     inkscape:window-y="-8"
     inkscape:window-maximized="1"
     inkscape:current-layer="svg1"
     inkscape:lockguides="true"><inkscape:grid
       id="grid1"
       units="px"
       originx="0"
       originy="0"
       spacingx="0.26458332"
       spacingy="0.26458334"
       empcolor="#0099e5"
       empopacity="0.30196078"
       color="#0099e5"
       opacity="0.14901961"
       empspacing="32"
       dotted="false"
       gridanglex="30"
       gridanglez="30"
       visible="true" /></sodipodi:namedview><defs
     id="defs1"><rect
       x="128"
       y="128"
       width="1120"
       height="448.00002"
       id="rect12" /></defs><path
     style="fill:#804020;fill-opacity:1;stroke-width:1.00012;stroke-linecap:round;stroke-linejoin:round"
     d="M 0,33.866666 33.866666,0 508,1.4511718e-6 541.86666,33.866667 l -10e-6,203.200003 -33.86666,33.86667 H 33.866658 L -7.9528954e-6,237.06667 Z"
     id="path1"
     sodipodi:nodetypes="ccccccccc" /><path
     style="fill:#ff8040;fill-opacity:1;stroke-width:0.875105;stroke-linecap:round;stroke-linejoin:round"
     d="M 533.39998,38.099995 503.76665,8.466666 38.099995,8.4666675 8.4666655,38.099996 l 10e-6,194.733334 29.6333295,29.63334 H 503.76666 l 29.63333,-29.63334 z"
     id="path2"
     sodipodi:nodetypes="ccccccccc" /><path
     id="rect1"
     style="display:inline;fill:#808080;stroke-width:12.7;stroke-linecap:round;stroke-linejoin:round"
     d="M 33.866666,33.866666 V 101.6 H 101.6 V 33.866666 Z" /><path
     id="text13"
     style="font-style:normal;font-variant:normal;font-weight:normal;font-stretch:normal;font-size:56.4444px;font-family:Rajdhani;-inkscape-font-specification:Rajdhani;fill:#804020;fill-opacity:1;stroke:none;stroke-width:11.8506;stroke-linecap:butt;stroke-linejoin:miter;stroke-dasharray:none;stroke-opacity:1"
     d="m 128.10569,42.333333 c -0.73737,0 -1.10569,0.368804 -1.10569,1.106177 v 31.654313 c 0,0.737368 0.36832,1.106176 1.10569,1.106176 h 13.0094 c 2.73881,0 4.86343,-0.7376 6.3733,-2.21236 1.54497,-1.509856 2.31747,-3.633992 2.31747,-6.3728 V 50.918502 c 0,-2.738816 -0.7725,-4.845507 -2.31747,-6.320254 -1.50987,-1.50986 -3.63449,-2.264915 -6.3733,-2.264915 z m 29.38988,0 c -0.73736,0 -1.10617,0.368804 -1.10617,1.106177 v 31.654313 c 0,0.737368 0.36881,1.106176 1.10617,1.106176 h 4.47679 c 0.73737,0 1.10618,-0.368808 1.10618,-1.106176 V 43.43951 c 0,-0.737373 -0.36881,-1.106177 -1.10618,-1.106177 z m 20.54095,0 c -2.73881,0 -4.88039,0.755055 -6.42537,2.264915 -1.54497,1.50986 -2.31748,3.633998 -2.31748,6.372814 v 1.843472 c 0,2.177 0.40371,3.96772 1.21131,5.372232 0.8427,1.369408 1.87836,2.300384 3.10731,2.791968 1.22896,0.456464 2.54571,0.84224 3.95023,1.158248 1.43963,0.280912 2.77431,0.47428 4.00326,0.579608 1.22896,0.105344 2.24717,0.438776 3.05477,1.000584 0.84271,0.526688 1.26386,1.299193 1.26386,2.317473 v 0.632176 c 0,1.439624 -0.28109,2.422944 -0.84289,2.94964 -0.5267,0.526696 -1.47464,0.789856 -2.84405,0.789856 h -2.47516 c -1.40451,0 -2.37039,-0.245712 -2.89707,-0.737296 -0.5267,-0.491584 -0.78986,-1.404624 -0.78986,-2.73892 v -0.421448 c 0,-0.737368 -0.3688,-1.105696 -1.10618,-1.105696 h -4.47678 c -0.73738,0 -1.10619,0.368328 -1.10619,1.105696 v 1.053616 c 0,2.738816 0.77251,4.862952 2.31748,6.372816 1.54498,1.509856 3.68704,2.264912 6.42586,2.264912 h 5.74065 c 2.73882,0 4.88088,-0.755056 6.42586,-2.264912 1.54497,-1.509864 2.31747,-3.634 2.31747,-6.372816 v -1.790904 c 0,-2.106785 -0.42163,-3.827225 -1.26434,-5.161521 -0.8076,-1.369408 -1.8258,-2.317344 -3.05476,-2.84404 -2.31746,-0.948048 -4.9684,-1.54512 -7.95301,-1.790912 -2.87926,-0.245784 -4.31862,-1.19372 -4.31862,-2.844032 v -1.001064 c 0,-1.580088 0.24571,-2.633189 0.73729,-3.159885 0.52669,-0.561808 1.50953,-0.842893 2.94916,-0.842893 h 2.05419 c 1.40453,0 2.37039,0.245709 2.89709,0.73729 0.5267,0.491583 0.78985,1.422072 0.78985,2.79148 v 0.316328 c 0,0.737368 0.36881,1.106176 1.10618,1.106176 h 4.47679 c 0.73737,0 1.10617,-0.368808 1.10617,-1.106176 v -1.001056 c 0,-2.738816 -0.7725,-4.862954 -2.31747,-6.372814 -1.54498,-1.50986 -3.70449,-2.264915 -6.47843,-2.264915 z m 21.64714,0 c -0.73737,0 -1.10569,0.368804 -1.10569,1.106177 v 31.654313 c 0,0.737368 0.36832,1.106176 1.10569,1.106176 h 4.31911 c 0.45647,0 0.755,-0.07024 0.89545,-0.210728 0.14046,-0.17556 0.21072,-0.474088 0.21072,-0.895448 V 50.076094 h 0.21073 l 5.47736,17.696905 c 0.21067,0.702256 0.64975,1.053128 1.3169,1.053128 h 4.42422 c 0.66715,0 1.10623,-0.350872 1.3169,-1.053128 l 5.37225,-17.644345 h 0.21072 v 24.965169 c 0,0.737368 0.36832,1.106176 1.10569,1.106176 h 4.31911 c 0.73737,0 1.10618,-0.368808 1.10618,-1.106176 V 43.43951 c 0,-0.737373 -0.36881,-1.106177 -1.10618,-1.106177 h -7.79532 c -0.5618,0 -0.89524,0.245709 -1.00057,0.737291 l -5.63552,18.59235 h -0.31585 l -5.58296,-18.59235 c -0.17557,-0.491582 -0.50948,-0.737291 -1.00106,-0.737291 z m 44.87492,0 c -0.8076,0 -1.3344,0.368804 -1.58019,1.106177 l -8.32189,31.654313 c -0.21066,0.737368 1.4e-4,1.106176 0.63217,1.106176 h 5.05592 c 0.35113,0 0.59733,-0.07024 0.73778,-0.210728 0.17555,-0.17556 0.29817,-0.474088 0.36839,-0.895448 l 1.47508,-5.793688 h 10.27047 l 1.47457,5.793688 c 0.0703,0.42136 0.1754,0.719888 0.31584,0.895448 0.14046,0.140456 0.4041,0.210728 0.79034,0.210728 h 5.0564 c 0.63203,0 0.84237,-0.368808 0.63168,-1.106176 L 253.14375,43.43951 c -0.17557,-0.737373 -0.70237,-1.106177 -1.5802,-1.106177 z m 22.70025,0 c -0.73738,0 -1.10617,0.368804 -1.10617,1.106177 v 31.654313 c 0,0.737368 0.36879,1.106176 1.10617,1.106176 h 4.37167 c 0.73736,0 1.10618,-0.368808 1.10618,-1.106176 V 55.553454 h 0.21072 l 10.53376,19.592929 c 0.35113,0.702264 0.91281,1.053616 1.6853,1.053616 h 3.8451 c 0.73737,0 1.10618,-0.368808 1.10618,-1.106176 V 43.43951 c 0,-0.737373 -0.36881,-1.106177 -1.10618,-1.106177 h -4.37166 c -0.73738,0 -1.10618,0.368804 -1.10618,1.106177 v 19.592936 h -0.21074 L 272.68412,43.070624 c -0.2458,-0.491582 -0.7377,-0.737291 -1.47507,-0.737291 z m 28.02042,0 c -0.73737,0 -1.10617,0.368804 -1.10617,1.106177 v 3.581333 c 0,0.737374 0.3688,1.106177 1.10617,1.106177 h 6.00393 c 0.38624,0 0.57961,0.193367 0.57961,0.57961 v 26.387193 c 0,0.737368 0.38625,1.106176 1.15873,1.106176 h 4.42423 c 0.73739,0 1.10617,-0.368808 1.10617,-1.106176 V 48.70663 c 0,-0.386243 0.21034,-0.57961 0.6317,-0.57961 h 6.00441 c 0.73737,0 1.10618,-0.368803 1.10618,-1.106177 V 43.43951 c 0,-0.737373 -0.36881,-1.106177 -1.10618,-1.106177 z m 26.12392,0 c -0.73738,0 -1.10619,0.368804 -1.10619,1.106177 v 31.654313 c 0,0.737368 0.36881,1.106176 1.10619,1.106176 h 17.32849 c 0.70226,0 1.05314,-0.368808 1.05314,-1.106176 v -3.581336 c 0,-0.772488 -0.35088,-1.158728 -1.05314,-1.158728 h -11.11337 c -0.42135,0 -0.63217,-0.193376 -0.63217,-0.579616 V 43.43951 c 0,-0.737373 -0.36879,-1.106177 -1.10617,-1.106177 z m 23.91203,0 c -0.73738,0 -1.10618,0.368804 -1.10618,1.106177 v 31.654313 c 0,0.737368 0.3688,1.106176 1.10618,1.106176 h 4.47679 c 0.73737,0 1.10617,-0.368808 1.10617,-1.106176 V 43.43951 c 0,-0.737373 -0.3688,-1.106177 -1.10617,-1.106177 z m 13.79925,0 c -0.73738,0 -1.1057,0.368804 -1.1057,1.106177 v 31.654313 c 0,0.737368 0.36832,1.106176 1.1057,1.106176 h 4.37166 c 0.73737,0 1.10618,-0.368808 1.10618,-1.106176 V 55.553454 h 0.21073 l 10.53374,19.592929 c 0.35114,0.702264 0.91283,1.053616 1.68531,1.053616 h 3.8451 c 0.73737,0 1.10618,-0.368808 1.10618,-1.106176 V 43.43951 c 0,-0.737373 -0.36881,-1.106177 -1.10618,-1.106177 h -4.37166 c -0.73737,0 -1.10618,0.368804 -1.10618,1.106177 v 19.592936 h -0.21024 L 364.53972,43.070624 c -0.24578,-0.491582 -0.73769,-0.737291 -1.47505,-0.737291 z m 37.86944,0 c -2.77392,0 -4.91552,0.737607 -6.42538,2.212355 -1.50985,1.474747 -2.26491,3.598884 -2.26491,6.372814 v 16.696337 c 0,2.77392 0.75506,4.898056 2.26491,6.3728 1.50986,1.47476 3.65146,2.21236 6.42538,2.21236 h 5.58296 c 2.73882,0 4.86344,-0.7376 6.37331,-2.21236 1.50985,-1.509856 2.26442,-3.633992 2.26442,-6.3728 v -8.795897 c 0,-0.8076 -0.4037,-1.211296 -1.2113,-1.211296 h -9.21685 c -0.73737,0 -1.10618,0.3688 -1.10618,1.106168 v 3.581336 c 0,0.737368 0.36881,1.106176 1.10618,1.106176 h 3.15988 c 0.38625,0 0.57962,0.192888 0.57962,0.579128 v 3.318537 c 0,1.123608 -0.22827,1.931016 -0.68473,2.422592 -0.45647,0.456464 -1.24642,0.684736 -2.37004,0.684736 h -3.42365 c -1.0885,0 -1.87846,-0.228272 -2.37003,-0.684736 -0.45647,-0.491576 -0.68474,-1.298984 -0.68474,-2.422592 V 51.23483 c 0,-1.123616 0.22827,-1.91405 0.68474,-2.37052 0.49157,-0.491581 1.28153,-0.73729 2.37003,-0.73729 h 3.42365 c 1.12362,0 1.91357,0.245709 2.37004,0.73729 0.45646,0.45647 0.68473,1.246904 0.68473,2.37052 v 1.263856 c 0,0.772488 0.36831,1.158736 1.1057,1.158736 h 4.47725 c 0.73738,0 1.1057,-0.386248 1.1057,-1.158736 v -1.580184 c 0,-2.738816 -0.75457,-4.845507 -2.26442,-6.320254 -1.50987,-1.50986 -3.63449,-2.264915 -6.37331,-2.264915 z M 134.26827,48.12702 h 5.74112 c 1.12362,0 1.91357,0.245709 2.37004,0.73729 0.49158,0.45647 0.73729,1.246904 0.73729,2.37052 v 16.064161 c 0,1.123608 -0.24571,1.931016 -0.73729,2.422592 -0.45647,0.456464 -1.24642,0.684736 -2.37004,0.684736 h -5.74112 c -0.38625,0 -0.57913,-0.192888 -0.57913,-0.579136 V 48.70663 c 0,-0.386243 0.19288,-0.57961 0.57913,-0.57961 z m 113.71348,0.57961 h 0.21073 l 3.79253,15.221272 h -7.79533 z" /><path
     id="rect13-2"
     style="fill:#804020;fill-opacity:1;stroke:none;stroke-width:19.6653;stroke-linecap:butt;stroke-linejoin:miter;stroke-dasharray:none;stroke-opacity:1"
     d="m 127,84.666669 v 8.466668 h 284.20457 v -8.466668 z"
     sodipodi:nodetypes="ccccc" /></svg>
