<?xml version="1.0" encoding="UTF-8" standalone="no"?>
<!-- Created with Inkscape (http://www.inkscape.org/) -->

<svg
   width="2048"
   height="1024"
   viewBox="0 0 541.86664 270.93334"
   version="1.1"
   id="svg1"
   inkscape:version="1.3 (0e150ed6c4, 2023-07-21)"
   sodipodi:docname="future.svg"
   xml:space="preserve"
   xmlns:inkscape="http://www.inkscape.org/namespaces/inkscape"
   xmlns:sodipodi="http://sodipodi.sourceforge.net/DTD/sodipodi-0.dtd"
   xmlns="http://www.w3.org/2000/svg"
   xmlns:svg="http://www.w3.org/2000/svg"><sodipodi:namedview
     id="namedview1"
     pagecolor="#505050"
     bordercolor="#eeeeee"
     borderopacity="1"
     inkscape:showpageshadow="0"
     inkscape:pageopacity="0"
     inkscape:pagecheckerboard="0"
     inkscape:deskcolor="#505050"
     inkscape:document-units="px"
     showgrid="true"
     inkscape:zoom="0.28717459"
     inkscape:cx="1070.7772"
     inkscape:cy="266.38847"
     inkscape:window-width="1366"
     inkscape:window-height="705"
     inkscape:window-x="-8"
     inkscape:window-y="-8"
     inkscape:window-maximized="1"
     inkscape:current-layer="svg1"><inkscape:grid
       id="grid1"
       units="px"
       originx="0"
       originy="0"
       spacingx="0.26458332"
       spacingy="0.26458334"
       empcolor="#0099e5"
       empopacity="0.30196078"
       color="#0099e5"
       opacity="0.14901961"
       empspacing="32"
       dotted="false"
       gridanglex="30"
       gridanglez="30"
       visible="true" /></sodipodi:namedview><defs
     id="defs1" /><path
     style="fill:#804060;fill-opacity:1;stroke-width:1.00012;stroke-linecap:round;stroke-linejoin:round"
     d="M 0,33.866666 33.866666,0 508,1.4511718e-6 541.86666,33.866667 l -10e-6,203.200003 -33.86666,33.86667 H 33.866658 L -7.9528954e-6,237.06667 Z"
     id="path1"
     sodipodi:nodetypes="ccccccccc" /><path
     style="fill:#ff80a0;fill-opacity:1;stroke-width:0.875105;stroke-linecap:round;stroke-linejoin:round"
     d="M 533.39998,38.099995 503.76665,8.466666 38.099995,8.4666675 8.4666655,38.099996 l 10e-6,194.733334 29.6333295,29.63334 H 503.76666 l 29.63333,-29.63334 z"
     id="path2"
     sodipodi:nodetypes="ccccccccc" /><path
     id="path5"
     style="fill:#804060;fill-opacity:1;stroke-width:1.00012;stroke-linecap:round;stroke-linejoin:round"
     d="m 507.99999,33.866666 -25.4,8.466667 -9.3493,9.3493 c -2.41636,-0.570865 -4.98718,-0.870058 -7.58403,-0.882634 -11.69003,-10e-7 -21.16667,5.685983 -21.16667,12.7 h 16.93334 l -4.23334,4.233333 16.93334,16.933334 4.23333,-4.233334 v 16.933333 c 7.01402,0 12.7,-9.476639 12.7,-21.166666 -0.0126,-2.596847 -0.31177,-5.167668 -0.88263,-7.584033 l 9.3493,-9.3493 z m -21.16666,14.816667 c 3.50701,0 6.35,2.842992 6.35,6.35 0,3.507008 -2.84299,6.35 -6.35,6.35 -3.50701,0 -6.35,-2.842992 -6.35,-6.35 0,-3.507008 2.84299,-6.35 6.35,-6.35 z"
     sodipodi:nodetypes="ccccccccccccccsssss" /><path
     id="path14"
     style="fill:#804060;fill-opacity:1;stroke-width:1.00012;stroke-linecap:round;stroke-linejoin:round"
     d="M 457.19999 76.199999 A 8.4666662 8.4666662 0 0 0 448.73333 84.666666 L 440.26666 101.6 L 457.19999 93.133332 A 8.4666662 8.4666662 0 0 0 465.66666 84.666666 A 8.4666662 8.4666662 0 0 0 457.19999 76.199999 z " /><path
     id="text1"
     style="font-size:56.4444px;font-family:Rajdhani;-inkscape-font-specification:Rajdhani;fill:#804060;fill-opacity:1;stroke-width:11.8507"
     d="m 261.75614,42.333333 c -0.73738,0 -1.10569,0.368805 -1.10569,1.106178 v 31.654311 c 0,0.737373 0.36831,1.106177 1.10569,1.106177 h 4.47727 c 0.73737,0 1.10618,-0.368804 1.10618,-1.106177 V 63.875335 c 0,-0.386243 0.21033,-0.579609 0.63168,-0.579609 h 9.00661 c 0.73739,0 1.10618,-0.386252 1.10618,-1.158738 v -3.528772 c 0,-0.737373 -0.36879,-1.105695 -1.10618,-1.105695 h -9.00661 c -0.42135,0 -0.63168,-0.210814 -0.63168,-0.63217 v -8.163722 c 0,-0.386242 0.21033,-0.579609 0.63168,-0.579609 h 10.5868 c 0.70226,0 1.05313,-0.368804 1.05313,-1.106177 v -3.581332 c 0,-0.737373 -0.35087,-1.106178 -1.05313,-1.106178 z m 23.43803,0 c -0.73737,0 -1.1057,0.368805 -1.1057,1.106178 v 24.17532 c 0,2.773926 0.75458,4.898068 2.26444,6.372814 1.50986,1.474746 3.65192,2.212354 6.42586,2.212354 h 5.79368 c 2.73882,0 4.86296,-0.737608 6.37282,-2.212354 1.54497,-1.509859 2.31747,-3.634 2.31747,-6.372814 V 43.38695 c 0,-0.70226 -0.38626,-1.053617 -1.15874,-1.053617 h -4.42422 c -0.73738,0 -1.1057,0.368805 -1.1057,1.106178 v 23.859476 c 0,1.123616 -0.24619,1.931013 -0.73777,2.422595 -0.45647,0.456469 -1.24642,0.68473 -2.37004,0.68473 h -3.63389 c -1.0885,0 -1.87893,-0.228261 -2.37052,-0.68473 -0.45647,-0.491582 -0.68473,-1.298979 -0.68473,-2.422595 V 43.439511 c 0,-0.737373 -0.36832,-1.106178 -1.10569,-1.106178 z m 26.9668,0 c -0.73737,0 -1.10569,0.368805 -1.10569,1.106178 v 3.581332 c 0,0.737373 0.36832,1.106177 1.10569,1.106177 h 6.00441 c 0.38624,0 0.57961,0.193367 0.57961,0.579609 v 26.387193 c 0,0.737373 0.38625,1.106177 1.15873,1.106177 h 4.42424 c 0.73737,0 1.10569,-0.368804 1.10569,-1.106177 V 48.706629 c 0,-0.386242 0.21081,-0.579609 0.63217,-0.579609 h 6.00441 c 0.73738,0 1.10617,-0.368804 1.10617,-1.106177 v -3.581332 c 0,-0.737373 -0.36879,-1.106178 -1.10617,-1.106178 z m 25.86111,0 c -0.73737,0 -1.10618,0.368805 -1.10618,1.106178 v 24.17532 c 0,2.773926 0.75506,4.898068 2.26492,6.372814 1.50985,1.474746 3.65144,2.212354 6.42537,2.212354 h 5.79369 c 2.73882,0 4.86343,-0.737608 6.37329,-2.212354 1.54497,-1.509859 2.31748,-3.634 2.31748,-6.372814 V 43.38695 c 0,-0.70226 -0.38625,-1.053617 -1.15874,-1.053617 h -4.42422 c -0.73738,0 -1.10618,0.368805 -1.10618,1.106178 v 23.859476 c 0,1.123616 -0.24571,1.931013 -0.73729,2.422595 -0.45647,0.456469 -1.2469,0.68473 -2.37052,0.68473 h -3.63389 c -1.0885,0 -1.87846,-0.228261 -2.37004,-0.68473 -0.45646,-0.491582 -0.68473,-1.298979 -0.68473,-2.422595 V 43.439511 c 0,-0.737373 -0.3688,-1.106178 -1.10617,-1.106178 z m 29.75828,0 c -0.73737,0 -1.10617,0.368805 -1.10617,1.106178 v 31.654311 c 0,0.737373 0.3688,1.106177 1.10617,1.106177 h 4.47679 c 0.73737,0 1.10618,-0.368804 1.10618,-1.106177 V 64.296781 c 0,-0.386242 0.21033,-0.579609 0.63168,-0.579609 h 3.52926 l 5.26664,11.37665 c 0.17556,0.456469 0.40382,0.755001 0.68472,0.895454 0.28091,0.140452 0.73743,0.210723 1.36947,0.210723 h 4.26606 c 0.91294,0 1.21147,-0.421146 0.89545,-1.263858 l -5.63552,-11.745536 v -0.210724 c 3.12506,-1.299181 4.68751,-3.932669 4.68751,-7.900437 v -4.108382 c 0,-2.738814 -0.77251,-4.862955 -2.31748,-6.372815 -1.54497,-1.509858 -3.68656,-2.264914 -6.42537,-2.264914 z m 28.81027,0 c -0.73737,0 -1.10618,0.368805 -1.10618,1.106178 v 31.654311 c 0,0.737373 0.36881,1.106177 1.10618,1.106177 h 17.2229 c 0.70226,0 1.05313,-0.368804 1.05313,-1.106177 V 71.51249 c 0,-0.737373 -0.35087,-1.106178 -1.05313,-1.106178 h -11.00825 c -0.42136,0 -0.63168,-0.192884 -0.63168,-0.579128 v -7.321309 c 0,-0.386243 0.21032,-0.579128 0.63168,-0.579128 h 9.00662 c 0.73737,0 1.10617,-0.368804 1.10617,-1.106177 v -3.581815 c 0,-0.737373 -0.3688,-1.105694 -1.10617,-1.105694 h -9.00662 c -0.42136,0 -0.63168,-0.193367 -0.63168,-0.57961 v -6.846822 c 0,-0.386242 0.21032,-0.579609 0.63168,-0.579609 h 11.00825 c 0.70226,0 1.05313,-0.368804 1.05313,-1.106177 v -3.581332 c 0,-0.737373 -0.35087,-1.106178 -1.05313,-1.106178 z m -22.64818,5.793687 h 5.16152 c 1.12362,0 1.94894,0.245708 2.47564,0.73729 0.52669,0.491582 0.78985,1.282015 0.78985,2.370518 v 4.107899 c 0,1.05339 -0.26316,1.825893 -0.78985,2.317475 -0.5267,0.456468 -1.35202,0.684731 -2.47564,0.684731 h -5.16152 c -0.38624,0 -0.57912,-0.192885 -0.57912,-0.579128 v -9.059176 c 0,-0.386242 0.19288,-0.579609 0.57912,-0.579609 z" /><path
     id="rect1"
     style="fill:#804060;fill-opacity:1;stroke-width:19.1632"
     d="m 414.86666,84.666666 v 8.466666 h -154.2161 v -8.466666 z" /></svg>
