<?xml version="1.0" encoding="UTF-8" standalone="no"?>
<!-- Created with Inkscape (http://www.inkscape.org/) -->

<svg
   width="2048"
   height="1024"
   viewBox="0 0 541.86664 270.93334"
   version="1.1"
   id="svg1"
   inkscape:version="1.3 (0e150ed6c4, 2023-07-21)"
   sodipodi:docname="hierarchy.svg"
   xmlns:inkscape="http://www.inkscape.org/namespaces/inkscape"
   xmlns:sodipodi="http://sodipodi.sourceforge.net/DTD/sodipodi-0.dtd"
   xmlns="http://www.w3.org/2000/svg"
   xmlns:svg="http://www.w3.org/2000/svg">
  <sodipodi:namedview
     id="namedview1"
     pagecolor="#505050"
     bordercolor="#eeeeee"
     borderopacity="1"
     inkscape:showpageshadow="0"
     inkscape:pageopacity="0"
     inkscape:pagecheckerboard="0"
     inkscape:deskcolor="#505050"
     inkscape:document-units="px"
     showgrid="true"
     inkscape:zoom="0.3107219"
     inkscape:cx="973.53937"
     inkscape:cy="255.8558"
     inkscape:window-width="1366"
     inkscape:window-height="705"
     inkscape:window-x="-8"
     inkscape:window-y="-8"
     inkscape:window-maximized="1"
     inkscape:current-layer="svg1">
    <inkscape:grid
       id="grid1"
       units="px"
       originx="0"
       originy="0"
       spacingx="0.26458332"
       spacingy="0.26458334"
       empcolor="#0099e5"
       empopacity="0.30196078"
       color="#0099e5"
       opacity="0.14901961"
       empspacing="32"
       dotted="false"
       gridanglex="30"
       gridanglez="30"
       visible="true" />
  </sodipodi:namedview>
  <defs
     id="defs1">
    <rect
       x="416"
       y="128"
       width="1024"
       height="320.00001"
       id="rect1" />
  </defs>
  <path
     style="fill:#402060;fill-opacity:1;stroke-width:1.00012;stroke-linecap:round;stroke-linejoin:round"
     d="M 0,33.866666 33.866666,0 508,1.4511718e-6 541.86666,33.866667 l -10e-6,203.200003 -33.86666,33.86667 H 33.866658 L -7.9528954e-6,237.06667 Z"
     id="path1"
     sodipodi:nodetypes="ccccccccc" />
  <path
     style="fill:#8060c0;fill-opacity:1;stroke-width:0.875105;stroke-linecap:round;stroke-linejoin:round"
     d="M 533.39998,38.099995 503.76665,8.466666 38.099995,8.4666675 8.4666655,38.099996 l 10e-6,194.733334 29.6333295,29.63334 H 503.76666 l 29.63333,-29.63334 z"
     id="path2"
     sodipodi:nodetypes="ccccccccc" />
  <path
     id="path3"
     style="fill:#402060;fill-opacity:1;stroke-width:1.00012;stroke-linecap:round;stroke-linejoin:round"
     d="m 474.13333,33.866666 -8.46667,16.933333 h 16.93333 z m -12.7,25.4 -8.46667,16.933333 h 42.33333 l -8.46666,-16.933333 z m -12.7,25.4 L 440.26666,101.6 h 67.73333 l -8.46666,-16.933334 z" />
  <path
     id="text1"
     style="font-size:213.333px;font-family:Rajdhani;-inkscape-font-specification:Rajdhani;white-space:pre;shape-inside:url(#rect1);fill:#402060;fill-opacity:1;stroke-width:11.8507"
     d="m 177.40599,42.333333 c -0.73738,0 -1.1057,0.368805 -1.1057,1.106175 v 31.654316 c 0,0.73737 0.36832,1.106175 1.1057,1.106175 h 4.47727 c 0.73737,0 1.10569,-0.368805 1.10569,-1.106175 V 62.769157 c 0,-0.386242 0.21082,-0.579126 0.63217,-0.579126 h 8.90101 c 0.38625,0 0.57961,0.192884 0.57961,0.579126 v 12.324667 c 0,0.73737 0.36881,1.106175 1.10618,1.106175 h 4.47679 c 0.73737,0 1.10617,-0.368805 1.10617,-1.106175 V 43.439508 c 0,-0.73737 -0.3688,-1.106175 -1.10617,-1.106175 h -4.47679 c -0.73737,0 -1.10618,0.368805 -1.10618,1.106175 v 12.377227 c 0,0.386242 -0.19336,0.579608 -0.57961,0.579608 h -8.90101 c -0.42135,0 -0.63217,-0.193366 -0.63217,-0.579608 V 43.439508 c 0,-0.73737 -0.36832,-1.106175 -1.10569,-1.106175 z m 30.60118,0 c -0.73738,0 -1.10618,0.368805 -1.10618,1.106175 v 31.654316 c 0,0.73737 0.3688,1.106175 1.10618,1.106175 h 4.47678 c 0.73738,0 1.10618,-0.368805 1.10618,-1.106175 V 43.439508 c 0,-0.73737 -0.3688,-1.106175 -1.10618,-1.106175 z m 13.79924,0 c -0.73737,0 -1.10569,0.368805 -1.10569,1.106175 v 31.654316 c 0,0.73737 0.36832,1.106175 1.10569,1.106175 h 17.22338 c 0.70226,0 1.05314,-0.368805 1.05314,-1.106175 v -3.581333 c 0,-0.737372 -0.35088,-1.106177 -1.05314,-1.106177 h -11.00824 c -0.42136,0 -0.63217,-0.192887 -0.63217,-0.57913 v -7.321309 c 0,-0.386242 0.21081,-0.579129 0.63217,-0.579129 h 9.00661 c 0.73737,0 1.10618,-0.368805 1.10618,-1.106175 v -3.581817 c 0,-0.737372 -0.36881,-1.105693 -1.10618,-1.105693 h -9.00661 c -0.42136,0 -0.63217,-0.193368 -0.63217,-0.579611 v -6.846821 c 0,-0.386243 0.21081,-0.579611 0.63217,-0.579611 h 11.00824 c 0.70226,0 1.05314,-0.368805 1.05314,-1.106177 v -3.581333 c 0,-0.73737 -0.35088,-1.106175 -1.05314,-1.106175 z m 25.22894,0 c -0.73737,0 -1.10618,0.368805 -1.10618,1.106175 v 31.654316 c 0,0.73737 0.36881,1.106175 1.10618,1.106175 h 4.47679 c 0.73737,0 1.10618,-0.368805 1.10618,-1.106175 V 64.296781 c 0,-0.386242 0.21081,-0.579608 0.63217,-0.579608 h 3.52877 l 5.26712,11.376651 c 0.17556,0.456468 0.40334,0.755001 0.68424,0.895453 0.28091,0.140453 0.73743,0.210722 1.36947,0.210722 h 4.26654 c 0.91294,0 1.21147,-0.421145 0.89546,-1.263858 l -5.63601,-11.745537 v -0.210722 c 3.12505,-1.29918 4.68751,-3.932673 4.68751,-7.900439 V 50.97106 c 0,-2.73881 -0.7725,-4.862957 -2.31747,-6.372815 -1.54498,-1.509857 -3.68657,-2.264912 -6.42538,-2.264912 z m 35.44637,0 c -0.8076,0 -1.33391,0.368805 -1.5797,1.106175 l -8.32189,31.654316 c -0.21067,0.73737 1.4e-4,1.106175 0.63217,1.106175 h 5.05592 c 0.35113,0 0.59732,-0.07027 0.73777,-0.210722 0.17557,-0.175565 0.29818,-0.474098 0.36841,-0.895453 l 1.47458,-5.793688 h 10.27095 l 1.47458,5.793688 c 0.0702,0.421355 0.1754,0.719888 0.31585,0.895453 0.14045,0.140453 0.40409,0.210722 0.79033,0.210722 h 5.05591 c 0.63204,0 0.84285,-0.368805 0.63218,-1.106175 l -8.32189,-31.654316 c -0.17556,-0.73737 -0.70188,-1.106175 -1.5797,-1.106175 z m 22.70074,0 c -0.73737,0 -1.10617,0.368805 -1.10617,1.106175 v 31.654316 c 0,0.73737 0.3688,1.106175 1.10617,1.106175 h 4.47679 c 0.73737,0 1.10618,-0.368805 1.10618,-1.106175 V 64.296781 c 0,-0.386242 0.21081,-0.579608 0.63217,-0.579608 h 3.52877 l 5.26713,11.376651 c 0.17556,0.456468 0.40381,0.755001 0.68472,0.895453 0.28091,0.140453 0.73694,0.210722 1.36897,0.210722 h 4.26656 c 0.91292,0 1.21146,-0.421145 0.89544,-1.263858 l -5.636,-11.745537 v -0.210722 c 3.12504,-1.29918 4.688,-3.932673 4.688,-7.900439 V 50.97106 c 0,-2.73881 -0.77252,-4.862957 -2.31747,-6.372815 -1.54498,-1.509857 -3.68706,-2.264912 -6.42587,-2.264912 z m 35.86783,0 c -2.77395,0 -4.91553,0.737609 -6.42538,2.212352 C 333.11504,46.02043 332.36,48.144577 332.36,50.9185 v 16.696332 c 0,2.773923 0.75504,4.89807 2.26491,6.372815 1.50985,1.474742 3.65143,2.212352 6.42538,2.212352 h 5.74112 c 2.73881,0 4.86294,-0.73761 6.37282,-2.212352 1.54495,-1.509858 2.31747,-3.634004 2.31747,-6.372815 v -2.475639 c 0,-0.772485 -0.38626,-1.158738 -1.15875,-1.158738 h -4.42422 c -0.73736,0 -1.10569,0.386253 -1.10569,1.158738 v 2.159794 c 0,1.123616 -0.2462,1.931013 -0.73778,2.422596 -0.45647,0.456467 -1.24642,0.684731 -2.37003,0.684731 h -3.58132 c -1.08851,0 -1.87845,-0.228264 -2.37006,-0.684731 -0.45645,-0.491583 -0.68472,-1.29898 -0.68472,-2.422596 V 51.234826 c 0,-1.123615 0.22827,-1.914049 0.68472,-2.370517 0.49161,-0.491582 1.28155,-0.737291 2.37006,-0.737291 h 3.58132 c 1.12361,0 1.91356,0.245709 2.37003,0.737291 0.49158,0.456468 0.73778,1.246902 0.73778,2.370517 v 2.159313 c 0,0.772485 0.36833,1.158738 1.10569,1.158738 h 4.42422 c 0.77249,0 1.15875,-0.386253 1.15875,-1.158738 V 50.9185 c 0,-2.738811 -0.77252,-4.845509 -2.31747,-6.320255 -1.50988,-1.509857 -3.63401,-2.264912 -6.37282,-2.264912 z m 21.27872,0 c -0.73739,0 -1.10619,0.368805 -1.10619,1.106175 v 31.654316 c 0,0.73737 0.3688,1.106175 1.10619,1.106175 h 4.47678 c 0.73736,0 1.10618,-0.368805 1.10618,-1.106175 V 62.769157 c 0,-0.386242 0.2108,-0.579126 0.63216,-0.579126 h 8.90101 c 0.38625,0 0.57912,0.192884 0.57912,0.579126 v 12.324667 c 0,0.73737 0.36883,1.106175 1.10619,1.106175 h 4.47678 c 0.73738,0 1.10619,-0.368805 1.10619,-1.106175 V 43.439508 c 0,-0.73737 -0.36881,-1.106175 -1.10619,-1.106175 h -4.47678 c -0.73736,0 -1.10619,0.368805 -1.10619,1.106175 v 12.377227 c 0,0.386242 -0.19287,0.579608 -0.57912,0.579608 h -8.90101 c -0.42136,0 -0.63216,-0.193366 -0.63216,-0.579608 V 43.439508 c 0,-0.73737 -0.36882,-1.106175 -1.10618,-1.106175 z m 27.17753,0 c -0.31602,0 -0.56175,0.123094 -0.73731,0.368886 -0.14045,0.210678 -0.14045,0.473834 0,0.789851 l 9.63831,20.330705 v 11.271049 c 0,0.73737 0.36881,1.106175 1.10619,1.106175 h 4.47678 c 0.73736,0 1.10616,-0.368805 1.10616,-1.106175 V 63.822775 l 9.63831,-20.330705 c 0.17557,-0.35113 0.17557,-0.631733 0,-0.842411 -0.14045,-0.21068 -0.38615,-0.316326 -0.73728,-0.316326 h -5.58297 c -0.59693,0 -1.01807,0.368805 -1.26385,1.106175 l -5.16202,12.798673 h -0.36838 l -5.26713,-12.798673 c -0.28091,-0.73737 -0.70205,-1.106175 -1.26387,-1.106175 z m -136.3091,5.793685 h 5.162 c 1.12362,0 1.94846,0.245709 2.47516,0.737291 0.52669,0.491583 0.79033,1.282017 0.79033,2.370517 v 4.107902 c 0,1.053388 -0.26364,1.825893 -0.79033,2.317473 -0.5267,0.45647 -1.35154,0.684731 -2.47516,0.684731 h -5.162 c -0.38624,0 -0.57912,-0.192885 -0.57912,-0.579127 v -9.059176 c 0,-0.386243 0.19288,-0.579611 0.57912,-0.579611 z m 58.1476,0 h 5.16151 c 1.12363,0 1.94846,0.245709 2.47517,0.737291 0.52669,0.491583 0.79031,1.282017 0.79031,2.370517 v 4.107902 c 0,1.053388 -0.26362,1.825893 -0.79031,2.317473 -0.52671,0.45647 -1.35154,0.684731 -2.47517,0.684731 h -5.16151 c -0.38625,0 -0.57961,-0.192885 -0.57961,-0.579127 v -9.059176 c 0,-0.386243 0.19336,-0.579611 0.57961,-0.579611 z m -25.43967,0.579611 h 0.21073 l 3.79205,15.221266 h -7.79483 z" />
  <path
     id="rect2"
     style="fill:#402060;fill-opacity:1;stroke-width:27.5218"
     d="m 414.86666,84.666666 v 8.466666 H 176.30034 v -8.466666 z" />
</svg>
