<?xml version="1.0" encoding="UTF-8" standalone="no"?>
<!-- Created with Inkscape (http://www.inkscape.org/) -->

<svg
   width="2048"
   height="1024"
   viewBox="0 0 541.86664 270.93334"
   version="1.1"
   id="svg1"
   inkscape:version="1.3 (0e150ed6c4, 2023-07-21)"
   sodipodi:docname="individual.svg"
   xmlns:inkscape="http://www.inkscape.org/namespaces/inkscape"
   xmlns:sodipodi="http://sodipodi.sourceforge.net/DTD/sodipodi-0.dtd"
   xmlns="http://www.w3.org/2000/svg"
   xmlns:svg="http://www.w3.org/2000/svg">
  <sodipodi:namedview
     id="namedview1"
     pagecolor="#505050"
     bordercolor="#eeeeee"
     borderopacity="1"
     inkscape:showpageshadow="0"
     inkscape:pageopacity="0"
     inkscape:pagecheckerboard="0"
     inkscape:deskcolor="#505050"
     inkscape:document-units="px"
     showgrid="true"
     inkscape:zoom="0.31"
     inkscape:cx="1274.1935"
     inkscape:cy="514.51613"
     inkscape:window-width="1366"
     inkscape:window-height="705"
     inkscape:window-x="-8"
     inkscape:window-y="-8"
     inkscape:window-maximized="1"
     inkscape:current-layer="svg1">
    <inkscape:grid
       id="grid1"
       units="px"
       originx="0"
       originy="0"
       spacingx="0.26458332"
       spacingy="0.26458334"
       empcolor="#0099e5"
       empopacity="0.30196078"
       color="#0099e5"
       opacity="0.14901961"
       empspacing="32"
       dotted="false"
       gridanglex="30"
       gridanglez="30"
       visible="true" />
  </sodipodi:namedview>
  <defs
     id="defs1" />
  <path
     style="fill:#806020;fill-opacity:1;stroke-width:1.00012;stroke-linecap:round;stroke-linejoin:round"
     d="M 0,33.866666 33.866666,0 508,1.4511718e-6 541.86666,33.866667 l -10e-6,203.200003 -33.86666,33.86667 H 33.866658 L -7.9528954e-6,237.06667 Z"
     id="path1"
     sodipodi:nodetypes="ccccccccc" />
  <path
     style="fill:#ffe040;fill-opacity:1;stroke-width:0.875105;stroke-linecap:round;stroke-linejoin:round"
     d="M 533.39998,38.099995 503.76665,8.466666 38.099995,8.4666675 8.4666655,38.099996 l 10e-6,194.733334 29.6333295,29.63334 H 503.76666 l 29.63333,-29.63334 z"
     id="path2"
     sodipodi:nodetypes="ccccccccc" />
  <path
     id="rect2"
     style="fill:#806020;fill-opacity:1;stroke-width:1.00012;stroke-linecap:round;stroke-linejoin:round"
     d="m 474.13333,33.866666 c 9.35202,-1e-6 16.93334,7.581311 16.93333,16.933333 10e-6,9.352022 -7.58131,16.933334 -16.93333,16.933333 -9.35202,10e-7 -16.93333,-7.581311 -16.93333,-16.933333 0,-9.352022 7.58131,-16.933334 16.93333,-16.933333 z m 0,42.333336 h 16.93333 c 9.35201,0 16.93333,7.58132 16.93333,16.933334 V 101.6 h -67.73333 l 0,-8.466665 c 0,-9.352014 7.58132,-16.933334 16.93334,-16.933334 z"
     sodipodi:nodetypes="ssssscssccssc" />
  <path
     id="text1"
     style="font-size:56.4444px;font-family:Rajdhani;-inkscape-font-specification:Rajdhani;fill:#806020;fill-opacity:1;stroke-width:11.8507"
     d="m 179.22346,42.333333 c -0.73737,0 -1.10617,0.368804 -1.10617,1.106177 v 31.654313 c 0,0.737373 0.3688,1.106176 1.10617,1.106176 h 4.47679 c 0.73737,0 1.10618,-0.368803 1.10618,-1.106176 V 43.43951 c 0,-0.737373 -0.36881,-1.106177 -1.10618,-1.106177 z m 13.79925,0 c -0.73737,0 -1.10618,0.368804 -1.10618,1.106177 v 31.654313 c 0,0.737373 0.36881,1.106176 1.10618,1.106176 h 4.37166 c 0.73737,0 1.10618,-0.368803 1.10618,-1.106176 V 55.55345 h 0.21024 l 10.53424,19.592933 c 0.35113,0.702259 0.91282,1.053616 1.6853,1.053616 h 3.8451 c 0.73737,0 1.1057,-0.368803 1.1057,-1.106176 V 43.43951 c 0,-0.737373 -0.36833,-1.106177 -1.1057,-1.106177 h -4.37166 c -0.73737,0 -1.10618,0.368804 -1.10618,1.106177 v 19.592932 h -0.21073 L 198.44751,43.070624 c -0.24579,-0.491582 -0.73721,-0.737291 -1.47458,-0.737291 z m 30.81142,0 c -0.73737,0 -1.10569,0.368804 -1.10569,1.106177 v 31.654313 c 0,0.737373 0.36832,1.106176 1.10569,1.106176 h 13.00939 c 2.73882,0 4.86344,-0.737608 6.3733,-2.212353 1.54497,-1.50986 2.31747,-3.634001 2.31747,-6.372815 v -16.69633 c 0,-2.738813 -0.7725,-4.845507 -2.31747,-6.320254 -1.50986,-1.509858 -3.63448,-2.264914 -6.3733,-2.264914 z m 29.38987,0 c -0.73737,0 -1.10617,0.368804 -1.10617,1.106177 v 31.654313 c 0,0.737373 0.3688,1.106176 1.10617,1.106176 h 4.47679 c 0.73738,0 1.10618,-0.368803 1.10618,-1.106176 V 43.43951 c 0,-0.737373 -0.3688,-1.106177 -1.10618,-1.106177 z m 11.16593,0 c -0.94805,0 -1.29941,0.404181 -1.05361,1.21178 l 8.1642,31.54871 c 0.14045,0.737373 0.57904,1.106176 1.31642,1.106176 h 6.89986 c 0.66715,0 1.08829,-0.368803 1.26386,-1.106176 l 8.16372,-31.54871 c 0.17557,-0.807599 -0.17531,-1.21178 -1.05313,-1.21178 h -4.9508 c -0.70225,0 -1.12389,0.368804 -1.26434,1.106177 l -5.5304,25.913668 h -0.21072 L 270.60506,43.43951 c -0.14044,-0.737373 -0.56207,-1.106177 -1.26433,-1.106177 z m 30.33742,0 c -0.73738,0 -1.1057,0.368804 -1.1057,1.106177 v 31.654313 c 0,0.737373 0.36832,1.106176 1.1057,1.106176 h 4.47727 c 0.73737,0 1.10569,-0.368803 1.10569,-1.106176 V 43.43951 c 0,-0.737373 -0.36832,-1.106177 -1.10569,-1.106177 z m 13.79972,0 c -0.73737,0 -1.10618,0.368804 -1.10618,1.106177 v 31.654313 c 0,0.737373 0.36881,1.106176 1.10618,1.106176 h 13.0094 c 2.73881,0 4.86295,-0.737608 6.37281,-2.212353 1.54497,-1.50986 2.31747,-3.634001 2.31747,-6.372815 v -16.69633 c 0,-2.738813 -0.7725,-4.845507 -2.31747,-6.320254 -1.50986,-1.509858 -3.634,-2.264914 -6.37281,-2.264914 z m 28.86284,0 c -0.73738,0 -1.10618,0.368804 -1.10618,1.106177 v 24.175321 c 0,2.773927 0.75505,4.898069 2.26491,6.372815 1.50986,1.474745 3.65193,2.212353 6.42586,2.212353 h 5.7932 c 2.73881,0 4.86344,-0.737608 6.3733,-2.212353 1.54497,-1.50986 2.31747,-3.634001 2.31747,-6.372815 V 43.38695 c 0,-0.70226 -0.38625,-1.053617 -1.15873,-1.053617 h -4.42423 c -0.73738,0 -1.10617,0.368804 -1.10617,1.106177 v 23.859477 c 0,1.123616 -0.24571,1.931014 -0.7373,2.422596 -0.45647,0.456468 -1.24642,0.68473 -2.37003,0.68473 h -3.63437 c -1.08851,0 -1.87846,-0.228262 -2.37004,-0.68473 -0.45648,-0.491582 -0.68474,-1.29898 -0.68474,-2.422596 V 43.43951 c 0,-0.737373 -0.36879,-1.106177 -1.10617,-1.106177 z m 36.39437,0 c -0.8076,0 -1.3339,0.368804 -1.5797,1.106177 l -8.32188,31.654313 c -0.21068,0.737373 1.4e-4,1.106176 0.63217,1.106176 h 5.05592 c 0.35112,0 0.59683,-0.07027 0.73729,-0.210723 0.17556,-0.175565 0.29865,-0.474097 0.36888,-0.895453 l 1.47458,-5.793687 h 10.27096 l 1.47457,5.793687 c 0.0702,0.421356 0.1754,0.719888 0.31585,0.895453 0.14045,0.140452 0.4041,0.210723 0.79033,0.210723 h 5.05592 c 0.63204,0 0.84285,-0.368803 0.63217,-1.106176 L 382.36945,43.43951 c -0.17556,-0.737373 -0.70188,-1.106177 -1.5797,-1.106177 z m 22.70075,0 c -0.73737,0 -1.10618,0.368804 -1.10618,1.106177 v 31.654313 c 0,0.737373 0.36881,1.106176 1.10618,1.106176 h 17.3285 c 0.70226,0 1.05313,-0.368803 1.05313,-1.106176 V 71.51249 c 0,-0.772486 -0.35087,-1.158737 -1.05313,-1.158737 h -11.11337 c -0.42135,0 -0.63217,-0.193367 -0.63217,-0.57961 V 43.43951 c 0,-0.737373 -0.3688,-1.106177 -1.10617,-1.106177 z M 229.9967,48.127019 h 5.74113 c 1.12362,0 1.91356,0.245709 2.37003,0.737291 0.49158,0.456469 0.73729,1.246901 0.73729,2.370517 v 16.06416 c 0,1.123616 -0.24571,1.931014 -0.73729,2.422596 -0.45647,0.456468 -1.24641,0.68473 -2.37003,0.68473 h -5.74113 c -0.38624,0 -0.57961,-0.192885 -0.57961,-0.579128 V 48.706629 c 0,-0.386242 0.19337,-0.57961 0.57961,-0.57961 z m 84.69246,0 h 5.74113 c 1.12361,0 1.91357,0.245709 2.37003,0.737291 0.49159,0.456469 0.7373,1.246901 0.7373,2.370517 v 16.06416 c 0,1.123616 -0.24571,1.931014 -0.7373,2.422596 -0.45646,0.456468 -1.24642,0.68473 -2.37003,0.68473 h -5.74113 c -0.38624,0 -0.57912,-0.192885 -0.57912,-0.579128 V 48.706629 c 0,-0.386242 0.19288,-0.57961 0.57912,-0.57961 z m 62.51878,0.57961 h 0.21073 l 3.79205,15.221266 h -7.79484 z" />
  <path
     id="rect1"
     style="fill:#806020;fill-opacity:1;stroke-width:20.2486"
     d="m 414.86666,84.666666 v 8.466666 H 178.11723 v -8.466666 z" />
</svg>
