<?xml version="1.0" encoding="UTF-8" standalone="no"?>
<!-- Created with Inkscape (http://www.inkscape.org/) -->

<svg
   width="2048"
   height="1024"
   viewBox="0 0 541.86664 270.93334"
   version="1.1"
   id="svg1"
   inkscape:version="1.3 (0e150ed6c4, 2023-07-21)"
   sodipodi:docname="nature.svg"
   xml:space="preserve"
   xmlns:inkscape="http://www.inkscape.org/namespaces/inkscape"
   xmlns:sodipodi="http://sodipodi.sourceforge.net/DTD/sodipodi-0.dtd"
   xmlns="http://www.w3.org/2000/svg"
   xmlns:svg="http://www.w3.org/2000/svg"><sodipodi:namedview
     id="namedview1"
     pagecolor="#505050"
     bordercolor="#eeeeee"
     borderopacity="1"
     inkscape:showpageshadow="0"
     inkscape:pageopacity="0"
     inkscape:pagecheckerboard="0"
     inkscape:deskcolor="#505050"
     inkscape:document-units="px"
     showgrid="true"
     inkscape:zoom="0.94"
     inkscape:cx="356.91489"
     inkscape:cy="253.7234"
     inkscape:window-width="1366"
     inkscape:window-height="705"
     inkscape:window-x="-8"
     inkscape:window-y="-8"
     inkscape:window-maximized="1"
     inkscape:current-layer="svg1"><inkscape:grid
       id="grid1"
       units="px"
       originx="0"
       originy="0"
       spacingx="0.26458332"
       spacingy="0.26458334"
       empcolor="#0099e5"
       empopacity="0.30196078"
       color="#0099e5"
       opacity="0.14901961"
       empspacing="32"
       dotted="false"
       gridanglex="30"
       gridanglez="30"
       visible="true" /></sodipodi:namedview><defs
     id="defs1" /><path
     style="fill:#004040;fill-opacity:1;stroke-width:1.00012;stroke-linecap:round;stroke-linejoin:round"
     d="M 0,33.866666 33.866666,0 508,1.4511718e-6 541.86666,33.866667 l -10e-6,203.200003 -33.86666,33.86667 H 33.866658 L -7.9528954e-6,237.06667 Z"
     id="path1"
     sodipodi:nodetypes="ccccccccc" /><path
     style="fill:#008080;fill-opacity:1;stroke-width:0.875105;stroke-linecap:round;stroke-linejoin:round"
     d="M 533.39998,38.099995 503.76665,8.466666 38.099995,8.4666675 8.4666655,38.099996 l 10e-6,194.733334 29.6333295,29.63334 H 503.76666 l 29.63333,-29.63334 z"
     id="path2"
     sodipodi:nodetypes="ccccccccc" /><path
     id="path3"
     style="fill:#004040;stroke-width:1.00012;stroke-linecap:round;stroke-linejoin:round"
     d="M 67.733332 33.866666 L 42.333333 59.266666 L 55.033333 59.266666 L 80.433332 59.266666 L 93.133332 59.266666 L 67.733332 33.866666 z M 50.799999 63.499999 L 38.1 76.199999 L 50.799999 76.199999 L 84.666666 76.199999 L 97.366665 76.199999 L 84.666666 63.499999 L 50.799999 63.499999 z M 46.566666 80.433332 L 33.866666 93.133332 L 59.266666 93.133332 L 59.266666 101.6 L 76.199999 101.6 L 76.199999 93.133332 L 101.6 93.133332 L 88.899999 80.433332 L 46.566666 80.433332 z " /><path
     id="text1"
     style="font-size:56.4444px;font-family:Rajdhani;-inkscape-font-specification:Rajdhani;fill:#004040;fill-opacity:1;stroke-width:11.8507"
     d="m 128.1057,42.333333 c -0.73738,0 -1.1057,0.368804 -1.1057,1.106177 v 31.654313 c 0,0.737372 0.36832,1.106176 1.1057,1.106176 h 4.37166 c 0.73738,0 1.10618,-0.368804 1.10618,-1.106176 V 55.55345 h 0.21072 l 10.53376,19.592933 c 0.35114,0.702259 0.9133,1.053616 1.68579,1.053616 h 3.84461 c 0.73738,0 1.10618,-0.368804 1.10618,-1.106176 V 43.43951 c 0,-0.737373 -0.3688,-1.106177 -1.10618,-1.106177 h -4.37166 c -0.73738,0 -1.10618,0.368804 -1.10618,1.106177 v 19.592932 h -0.21024 L 133.53098,43.070623 c -0.24579,-0.491582 -0.73769,-0.73729 -1.47506,-0.73729 z m 37.448,0 c -0.8076,0 -1.33391,0.368804 -1.57971,1.106177 l -8.32188,31.654313 c -0.21067,0.737372 1.4e-4,1.106176 0.63217,1.106176 h 5.05592 c 0.35112,0 0.59732,-0.07027 0.73776,-0.210723 0.17557,-0.175565 0.29818,-0.474098 0.36841,-0.895453 l 1.47459,-5.793688 h 10.27095 l 1.47458,5.793688 c 0.0702,0.421355 0.1754,0.719888 0.31584,0.895453 0.14045,0.140452 0.4041,0.210723 0.79034,0.210723 h 5.05591 c 0.63204,0 0.84285,-0.368804 0.63217,-1.106176 L 174.13886,43.43951 c -0.17555,-0.737373 -0.70187,-1.106177 -1.5797,-1.106177 z m 19.90926,0 c -0.73737,0 -1.10618,0.368804 -1.10618,1.106177 v 3.581333 c 0,0.737372 0.36881,1.106176 1.10618,1.106176 h 6.00441 c 0.38624,0 0.57912,0.193367 0.57912,0.57961 v 26.387194 c 0,0.737372 0.38625,1.106176 1.15875,1.106176 h 4.42422 c 0.73737,0 1.10618,-0.368804 1.10618,-1.106176 V 48.706629 c 0,-0.386243 0.21081,-0.57961 0.63216,-0.57961 h 6.00441 c 0.73737,0 1.1057,-0.368804 1.1057,-1.106176 V 43.43951 c 0,-0.737373 -0.36833,-1.106177 -1.1057,-1.106177 z m 25.86062,0 c -0.73737,0 -1.10569,0.368804 -1.10569,1.106177 v 24.175321 c 0,2.773927 0.75457,4.898069 2.26443,6.372814 1.50986,1.474746 3.65193,2.212354 6.42585,2.212354 h 5.7937 c 2.7388,0 4.86295,-0.737608 6.3728,-2.212354 1.54497,-1.509859 2.31748,-3.634 2.31748,-6.372814 V 43.38695 c 0,-0.702261 -0.38625,-1.053617 -1.15873,-1.053617 h -4.42423 c -0.73737,0 -1.10569,0.368804 -1.10569,1.106177 v 23.859477 c 0,1.123615 -0.2462,1.931013 -0.73778,2.422595 -0.45647,0.456469 -1.24641,0.684731 -2.37003,0.684731 h -3.6339 c -1.0885,0 -1.87894,-0.228262 -2.37051,-0.684731 -0.45647,-0.491582 -0.68474,-1.29898 -0.68474,-2.422595 V 43.43951 c 0,-0.737373 -0.36831,-1.106177 -1.10569,-1.106177 z m 29.75828,0 c -0.73737,0 -1.10569,0.368804 -1.10569,1.106177 v 31.654313 c 0,0.737372 0.36832,1.106176 1.10569,1.106176 h 4.47727 c 0.73738,0 1.1057,-0.368804 1.1057,-1.106176 V 64.296782 c 0,-0.386243 0.21081,-0.57961 0.63217,-0.57961 h 3.52877 l 5.26712,11.376651 c 0.17556,0.456468 0.40383,0.755001 0.68473,0.895453 0.28091,0.140452 0.73743,0.210723 1.36946,0.210723 h 4.26607 c 0.91294,0 1.21146,-0.421146 0.89545,-1.263857 l -5.63553,-11.745538 v -0.210723 c 3.12506,-1.29918 4.68752,-3.932669 4.68752,-7.900437 v -4.108383 c 0,-2.738813 -0.77251,-4.862955 -2.31748,-6.372814 -1.54497,-1.509859 -3.68705,-2.264914 -6.42586,-2.264914 z m 28.81028,0 c -0.73738,0 -1.1057,0.368804 -1.1057,1.106177 v 31.654313 c 0,0.737372 0.36832,1.106176 1.1057,1.106176 h 17.22289 c 0.70226,0 1.05362,-0.368804 1.05362,-1.106176 V 71.51249 c 0,-0.737374 -0.35136,-1.106177 -1.05362,-1.106177 h -11.00776 c -0.42136,0 -0.63217,-0.192885 -0.63217,-0.579128 v -7.321311 c 0,-0.386242 0.21081,-0.579127 0.63217,-0.579127 h 9.00661 c 0.73738,0 1.10618,-0.368804 1.10618,-1.106177 v -3.581815 c 0,-0.737373 -0.3688,-1.105695 -1.10618,-1.105695 h -9.00661 c -0.42136,0 -0.63217,-0.193367 -0.63217,-0.57961 v -6.846821 c 0,-0.386243 0.21081,-0.57961 0.63217,-0.57961 h 11.00776 c 0.70226,0 1.05362,-0.368804 1.05362,-1.106176 V 43.43951 c 0,-0.737373 -0.35136,-1.106177 -1.05362,-1.106177 z m -22.6477,5.793686 h 5.16152 c 1.12361,0 1.94894,0.245709 2.47564,0.737291 0.52669,0.491582 0.78985,1.282015 0.78985,2.370517 v 4.1079 c 0,1.05339 -0.26316,1.825893 -0.78985,2.317474 -0.5267,0.45647 -1.35203,0.684731 -2.47564,0.684731 h -5.16152 c -0.38624,0 -0.57961,-0.192885 -0.57961,-0.579127 v -9.059176 c 0,-0.386243 0.19337,-0.57961 0.57961,-0.57961 z m -78.26709,0.57961 h 0.21072 l 3.79206,15.221266 h -7.79484 z" /><path
     id="rect1"
     style="fill:#004040;fill-opacity:1;stroke-width:18.47"
     d="M 127 84.666666 L 127 93.133332 L 288.16845 93.133332 L 288.16845 84.666666 L 127 84.666666 z " /></svg>
